<?xml version="1.0" encoding="utf-8"?>
<!-- Generator: Adobe Illustrator 20.0.0, SVG Export Plug-In . SVG Version: 6.00 Build 0)  -->
<svg version="1.1" id="Layer_1" xmlns="http://www.w3.org/2000/svg" xmlns:xlink="http://www.w3.org/1999/xlink" x="0px" y="0px"
	 viewBox="0 0 30.5 40.2" style="enable-background:new 0 0 30.5 40.2;" xml:space="preserve">
<style type="text/css">
	.st0{fill:#F15F2A;}
	.st1{fill:#010101;}
</style>
<polygon class="st0" points="7,15.4 7,25.5 4.7,25.5 1.2,21.7 1.2,18.7 4.7,15.3 "/>
<g>
	<circle class="st0" cx="17.2" cy="34.6" r="1.5"/>
	<path class="st1" d="M17.2,3.1c5.6,0,10.2,4.6,10.2,10.2h3.1C30.5,5.9,24.5,0,17.2,0C9.9,0,3.9,5.9,3.9,13.3H7
		C7,7.6,11.6,3.1,17.2,3.1z"/>
	<rect x="3.9" y="13.3" class="st1" width="3.1" height="2.1"/>
	<rect x="27.4" y="13.3" class="st1" width="3.1" height="3.9"/>
	<path class="st0" d="M17.2,35.1c-10.4,0-10.7-7.4-10.7-7.5l0-3.7h1.1v3.6c0,0.2,0.4,6.4,9.6,6.4V35.1z"/>
	<g>
		<path class="st1" d="M5.9,16v8.7c-2.1-0.4-3.7-2.2-3.7-4.4S3.8,16.4,5.9,16 M8.1,13.7H6.6c-3.7,0-6.6,3-6.6,6.6S3,27,6.6,27h1.4
			V13.7L8.1,13.7z"/>
	</g>
	<g>
		<path class="st1" d="M27.2,14.2c1.6,0,3,1.3,3,3s-1.3,3-3,3h-0.6v-5.9H27.2z"/>
		<path class="st1" d="M27.5,14.9c1.1,0.2,1.9,1.1,1.9,2.2c0,1.1-0.8,2.1-1.9,2.2V14.9 M27.1,13.7h-0.7v6.8h0.7
			c1.9,0,3.4-1.5,3.4-3.4S28.9,13.7,27.1,13.7L27.1,13.7z"/>
	</g>
	<path class="st0" d="M23.5,35.1c-0.3,0-0.6-0.2-0.6-0.6c0-3-2.3-4.6-2.3-4.6c-0.3-0.2-0.3-0.5-0.1-0.8c0.2-0.3,0.5-0.3,0.8-0.1
		c0.1,0.1,2.8,2,2.8,5.5C24.1,34.9,23.8,35.1,23.5,35.1z"/>
	<path class="st0" d="M21,40.2c-0.2,0-0.3-0.1-0.5-0.2c-0.2-0.3-0.1-0.6,0.1-0.8c0.1-0.1,2.3-1.6,2.3-4.6c0-0.3,0.2-0.6,0.6-0.6
		s0.6,0.2,0.6,0.6c0,3.6-2.7,5.4-2.8,5.5C21.2,40.1,21.1,40.2,21,40.2z"/>
	<path class="st0" d="M21.2,35.1c-0.3,0-0.6-0.2-0.6-0.6c0-1.8-1.4-2.7-1.4-2.7C19,31.6,19,31.3,19.1,31c0.2-0.3,0.5-0.3,0.8-0.1
		c0.1,0.1,1.9,1.3,1.9,3.7C21.8,34.9,21.5,35.1,21.2,35.1z"/>
	<path class="st0" d="M19.6,38.3c-0.2,0-0.3-0.1-0.5-0.2c-0.2-0.3-0.1-0.6,0.1-0.8c0.1,0,1.4-1,1.4-2.7c0-0.3,0.2-0.6,0.6-0.6
		s0.6,0.2,0.6,0.6c0,2.4-1.8,3.6-1.9,3.7C19.8,38.3,19.7,38.3,19.6,38.3z"/>
</g>
</svg>
