<?xml version="1.0" encoding="utf-8"?>
<!-- Generator: Adobe Illustrator 20.0.0, SVG Export Plug-In . SVG Version: 6.00 Build 0)  -->
<svg version="1.1" id="Layer_1" xmlns="http://www.w3.org/2000/svg" xmlns:xlink="http://www.w3.org/1999/xlink" x="0px" y="0px"
	 viewBox="0 0 779 109.7" style="enable-background:new 0 0 779 109.7;" xml:space="preserve">
<style type="text/css">
	.st0{filter:url(#Adobe_OpacityMaskFilter);}
	.st1{fill:url(#SVGID_2_);}
	.st2{mask:url(#SVGID_1_);fill:#58595B;}
	.st3{fill:#F26522;}
</style>
<g>
	<path d="M30.5,46.3c-6.5-0.4-12.4-3.3-16.6-7.9l-1.9,0.6c0,0-6.6,12.3-11.2,39C-3.9,104.7,16,104.9,16,104.9
		C7,89.9,30.6,46.4,30.6,46.4L30.5,46.3z"/>
	<defs>
		<filter id="Adobe_OpacityMaskFilter" filterUnits="userSpaceOnUse" x="0" y="38.4" width="30.6" height="66.5">
			<feColorMatrix  type="matrix" values="1 0 0 0 0  0 1 0 0 0  0 0 1 0 0  0 0 0 1 0"/>
		</filter>
	</defs>
	<mask maskUnits="userSpaceOnUse" x="0" y="38.4" width="30.6" height="66.5" id="SVGID_1_">
		<g class="st0">
			
				<linearGradient id="SVGID_2_" gradientUnits="userSpaceOnUse" x1="27.0485" y1="-27.2747" x2="66.5393" y2="-27.2747" gradientTransform="matrix(0.9657 -0.2598 0.2598 0.9657 -25.666 111.804)">
				<stop  offset="0" style="stop-color:#000000;stop-opacity:0"/>
				<stop  offset="8.480757e-02" style="stop-color:#202020;stop-opacity:8.480757e-02"/>
				<stop  offset="0.2787" style="stop-color:#636363;stop-opacity:0.2787"/>
				<stop  offset="0.463" style="stop-color:#9A9A9A;stop-opacity:0.463"/>
				<stop  offset="0.6323" style="stop-color:#C6C6C6;stop-opacity:0.6323"/>
				<stop  offset="0.7835" style="stop-color:#E5E5E5;stop-opacity:0.7835"/>
				<stop  offset="0.9112" style="stop-color:#F8F8F8;stop-opacity:0.9112"/>
				<stop  offset="1" style="stop-color:#FFFFFF"/>
			</linearGradient>
			<path class="st1" d="M21.9,32.6c0,0-28,66.4-5.7,73.4c3.6,4-13.2,8.5-13.2,8.5l-13.2-49.1l15.7-29L21.9,32.6z"/>
		</g>
	</mask>
	<path class="st2" d="M30.5,46.3C23.9,46,18.2,43,13.8,38.4l-1.9,0.6c0,0-6.6,12.3-11.2,39C-3.9,104.7,16,104.9,16,104.9
		C7,89.9,30.6,46.4,30.6,46.4L30.5,46.3z"/>
</g>
<g>
	<g>
		<ellipse transform="matrix(0.9276 -0.3737 0.3737 0.9276 -5.7237 13.4729)" cx="31.9" cy="21.5" rx="2.8" ry="2.8"/>
		<path d="M32.6,8.6c1.1,2.8-2.4,8.8-2.4,8.8s-6.7-1.8-7.8-4.6c-1.1-2.8,0.2-6,3.1-7.2C28.3,4.4,31.5,5.8,32.6,8.6z"/>
		<path d="M31.2,34.5c-1.1-2.8,2.4-8.8,2.4-8.8s6.7,1.8,7.8,4.6c1.1,2.8-0.2,6-3.1,7.2C35.5,38.7,32.3,37.4,31.2,34.5z"/>
		<path d="M44.9,22.3c-2.8,1.1-8.8-2.4-8.8-2.4s1.8-6.7,4.6-7.8c2.8-1.1,6,0.2,7.2,3.1C49.1,17.9,47.7,21.2,44.9,22.3z"/>
		<path d="M18.9,20.9c2.8-1.1,8.8,2.4,8.8,2.4s-1.8,6.7-4.6,7.8c-2.8,1.1-6-0.2-7.2-3.1C14.7,25.2,16.1,22,18.9,20.9z"/>
		<g>
			<path d="M33.8,26.3c-2.7,1.1-5.7-0.2-6.8-2.9c-1.1-2.7,0.2-5.7,2.9-6.8c2.7-1.1,5.7,0.2,6.8,2.9C37.8,22.2,36.5,25.2,33.8,26.3z
				 M30.3,17.6c-2.2,0.9-3.2,3.3-2.3,5.5c0.9,2.2,3.3,3.2,5.5,2.3c2.2-0.9,3.2-3.3,2.3-5.5C34.9,17.8,32.5,16.7,30.3,17.6z"/>
		</g>
		<g>
			<g>
				<path d="M39.9,41.4c-11,4.4-23.5-0.9-28-11.9c-4.4-11,0.9-23.5,11.9-28c11-4.4,23.5,0.9,28,11.9C56.3,24.5,50.9,37,39.9,41.4z
					 M24.5,3.2c-10.1,4.1-15,15.6-10.9,25.7c4.1,10.1,15.6,15,25.7,10.9c10.1-4.1,15-15.6,10.9-25.7C46.1,4,34.6-0.9,24.5,3.2z"/>
				<path d="M31.9,44.1c-3,0-6-0.6-8.8-1.8c-5.5-2.4-9.8-6.7-12.1-12.3c-2.2-5.6-2.2-11.7,0.2-17.3c2.4-5.5,6.7-9.8,12.3-12.1
					C29-1.7,35.2-1.6,40.7,0.8c5.5,2.4,9.8,6.7,12.1,12.3c2.2,5.6,2.2,11.7-0.2,17.3s-6.7,9.8-12.3,12.1
					C37.6,43.5,34.8,44.1,31.9,44.1z M24.9,4.2C15.3,8,10.7,18.9,14.5,28.5c3.9,9.6,14.8,14.2,24.3,10.4c4.6-1.9,8.2-5.4,10.2-10
					c2-4.6,2-9.7,0.1-14.3C45.4,5,34.5,0.3,24.9,4.2L24.9,4.2z"/>
			</g>
		</g>
	</g>
</g>
<g>
	<g>
		<path class="st3" d="M101.9,42.8c4,1.7,7.6,3.3,10.8,5c3.2,1.7,5.9,3.7,8.2,6.1c2.3,2.4,4,5.2,5.3,8.5c1.2,3.3,1.8,7.3,1.8,12
			c0,5.1-0.9,9.7-2.7,13.7c-1.8,4.1-4.4,7.5-7.9,10.5c-3.5,2.9-7.7,5.1-12.8,6.7c-5,1.6-10.8,2.3-17.3,2.3c-5.9,0-11.2-0.5-15.7-1.5
			c-4.5-1-9.5-2.5-14.7-4.5c0.4-3.4,1.1-6.9,2.1-10.7c1-3.8,2.1-7.6,3.5-11.6c8.8,3.9,16.5,5.8,23,5.9c4.9,0,8.7-0.7,11.4-2.2
			c2.7-1.5,4.1-4,4.1-7.7c0-1.5-0.3-2.9-0.8-4c-0.6-1.1-1.3-2-2.3-2.8c-1-0.8-2-1.4-3.2-2c-1.2-0.5-2.4-1-3.7-1.5L83,62
			c-3.4-1.3-6.6-2.8-9.4-4.5c-2.8-1.7-5.2-3.8-7.2-6.2c-2-2.4-3.5-5.1-4.6-8.1c-1.1-3.1-1.6-6.7-1.6-10.8c0-5.1,0.9-9.6,2.7-13.5
			c1.7-3.9,4.2-7.2,7.3-10c3.1-2.7,6.9-4.8,11.3-6.1c4.4-1.4,9.4-2,14.8-2c4.9,0,9.6,0.5,14.2,1.5c4.5,1,9.4,2.4,14.6,4.2
			c-0.4,3.1-1.1,6.4-2.1,10.1c-1,3.7-2.3,7.2-3.9,10.4c-2.5-1.1-5.4-2.2-8.8-3.4c-3.4-1.2-7.5-1.8-12.5-1.8c-1.5,0-3,0.1-4.4,0.4
			c-1.4,0.3-2.6,0.7-3.7,1.3c-1.1,0.6-2,1.5-2.7,2.6c-0.7,1.1-1,2.5-1,4.1c0,2.8,0.9,4.8,2.7,6.2c1.8,1.4,4,2.5,6.5,3.5L101.9,42.8z
			"/>
		<path class="st3" d="M205.3,75l9.1-42.8c0.8-0.2,2.3-0.4,4.5-0.6c2.2-0.2,4.6-0.3,7-0.2c3.2,0,6,0.1,8.4,0.3
			c2.4,0.2,4.2,0.4,5.2,0.6l-23.7,73.9c-1.6,0.5-3.4,0.8-5.3,0.9c-1.9,0.1-3.8,0.2-5.8,0.2c-1.9,0-3.9-0.1-5.8-0.3
			c-2-0.2-4-0.5-6.1-1l-10.3-40.3c-1.9,6.4-3.7,13.2-5.6,20.2c-1.9,7.1-3.7,13.7-5.5,20c-2,0.5-4,0.8-6,0.9c-2,0.1-3.9,0.2-5.8,0.2
			c-1.9,0-3.8-0.1-5.8-0.2c-1.9-0.2-3.7-0.5-5.3-1l-22.2-74.2c1.1-0.2,2.9-0.4,5.5-0.5c2.6-0.2,5.5-0.3,8.7-0.2
			c2.5,0,4.9,0.1,7.3,0.3c2.3,0.2,3.9,0.4,4.7,0.6l9.1,44.1L172.3,32c1.6-0.5,3.4-0.8,5.4-0.9c2-0.1,3.9-0.2,5.8-0.2
			c1.9,0,3.9,0.1,5.8,0.2c2,0.2,4,0.5,6,1L205.3,75z"/>
		<path class="st3" d="M258.3,77.3c1,3.9,2.9,6.7,5.5,8.4c2.6,1.6,6.1,2.5,10.4,2.5c2.8,0,5.9-0.3,9.4-1c3.5-0.7,6.9-1.6,10.2-3
			c1.3,2.5,2.5,5.5,3.5,8.9c1,3.5,1.5,7.1,1.6,10.8c-8.6,3.1-17.3,4.7-26.2,4.6c-6.9,0-12.8-1-17.7-3c-4.9-1.9-8.9-4.6-12-8
			c-3.1-3.4-5.4-7.5-6.8-12.2c-1.5-4.7-2.2-9.8-2.1-15.4c0-5.5,0.8-10.6,2.4-15.4c1.6-4.8,3.9-8.9,7-12.5c3.1-3.5,6.9-6.3,11.6-8.4
			c4.6-2,10-3,16.1-3c5.1,0,9.6,0.9,13.6,2.7c4,1.7,7.3,4.1,10.1,7.2c2.8,3,4.9,6.7,6.3,11c1.5,4.3,2.2,8.9,2.2,13.9
			c0,2.6-0.1,4.9-0.4,7c-0.3,2.1-0.5,3.8-0.7,5.1L258.3,77.3z M270,49c-3.1,0-5.7,0.9-7.9,2.8c-2.2,1.9-3.5,4.9-3.9,8.9l23,0.1
			c-0.2-3.4-1.2-6.2-3-8.4C276.2,50.2,273.5,49.1,270,49z"/>
		<path class="st3" d="M340.7,109c-6.9,0-12.8-1.1-17.6-3.2c-4.8-2.1-8.8-4.9-11.8-8.5c-3.1-3.6-5.3-7.7-6.6-12.5
			c-1.4-4.8-2-9.9-2-15.4c0-5.3,0.9-10.3,2.6-14.9c1.7-4.7,4.2-8.7,7.5-12.2c3.3-3.4,7.4-6.1,12.3-8.1c4.9-2,10.6-3,17-2.9
			c3.4,0,7,0.4,11.1,1.2c4,0.8,8.4,2.2,13.2,4.1c-0.1,1.6-0.3,3.2-0.6,4.6c-0.3,1.4-0.7,2.9-1.1,4.4c-0.4,1.5-1,3.1-1.6,4.7
			c-0.6,1.7-1.4,3.6-2.3,5.7c-3.3-1.4-6.3-2.4-9-3c-2.8-0.6-5.2-1-7.2-1c-3.2,0-5.9,0.5-8.1,1.4c-2.2,0.9-4,2.2-5.3,3.9
			c-1.4,1.6-2.3,3.5-3,5.7c-0.6,2.2-1,4.4-1,6.7c0,6.4,1.3,11.2,4.1,14.2c2.8,3,6.8,4.6,12.2,4.6l2.6,0l0.1-21.1
			c2.4-0.5,4.5-0.8,6.4-1c1.9-0.2,3.7-0.3,5.4-0.3c3.4,0,7.3,0.5,11.9,1.4l-0.2,36.5c-2.8,1-6.7,2.2-11.7,3.4
			C353.1,108.4,347.3,109,340.7,109z"/>
		<path class="st3" d="M444.4,76.3l9.1-42.8c0.8-0.2,2.3-0.4,4.5-0.6c2.2-0.2,4.6-0.3,7-0.2c3.2,0,6,0.1,8.4,0.3
			c2.4,0.2,4.2,0.4,5.2,0.6l-23.7,73.9c-1.6,0.5-3.4,0.8-5.3,0.9c-1.9,0.1-3.8,0.2-5.8,0.2c-1.9,0-3.9-0.1-5.8-0.2
			c-2-0.2-4-0.5-6.1-1l-10.3-40.3c-1.9,6.4-3.7,13.2-5.6,20.2c-1.9,7.1-3.7,13.7-5.5,20c-2,0.5-4,0.8-6,0.9c-2,0.1-3.9,0.2-5.8,0.2
			c-1.9,0-3.8-0.1-5.8-0.2c-1.9-0.2-3.7-0.5-5.3-1L365.6,33c1.1-0.2,2.9-0.4,5.5-0.5c2.6-0.2,5.5-0.3,8.7-0.2c2.5,0,4.9,0.1,7.3,0.3
			c2.3,0.2,3.9,0.4,4.7,0.6l9.1,44.1l10.6-44c1.6-0.5,3.4-0.8,5.4-0.9c2-0.1,3.9-0.2,5.8-0.2c1.9,0,3.9,0.1,5.8,0.2c2,0.2,4,0.5,6,1
			L444.4,76.3z"/>
		<path class="st3" d="M473.6,83.6c0-4.7,1.1-8.6,3.1-11.6c2-3.1,4.6-5.5,7.8-7.3c3.2-1.8,6.7-3.1,10.5-3.8c3.8-0.7,7.6-1,11.2-1
			l8.8,0c-0.1-1.7-0.6-3.2-1.4-4.3c-0.9-1.2-2-2-3.3-2.7c-1.3-0.6-2.8-1.1-4.4-1.3c-1.6-0.2-3.3-0.4-5-0.4c-2.3,0-5,0.2-8.1,0.7
			c-3.1,0.5-6.2,1.3-9.5,2.5c-0.9-1.6-1.6-3.1-2.2-4.5c-0.6-1.3-1.1-2.7-1.4-4.1c-0.3-1.4-0.6-2.8-0.7-4.3c-0.1-1.5-0.2-3.2-0.2-5.1
			c4.6-1.5,9.2-2.6,13.8-3.4c4.6-0.7,8.7-1.1,12.3-1.1c5,0,9.5,0.7,13.5,1.9c4,1.2,7.4,3.1,10.3,5.6c2.8,2.5,5,5.7,6.5,9.6
			c1.5,3.9,2.3,8.5,2.2,13.9l-0.2,42.1c-3.7,1-8.1,2.1-13.2,3.1c-5.2,1-10.7,1.5-16.4,1.5c-5,0-9.6-0.5-13.7-1.4
			c-4.2-0.9-7.7-2.4-10.7-4.4c-3-2-5.3-4.7-6.9-8C474.4,92.5,473.6,88.4,473.6,83.6z M507.5,91.9c0.9,0,2.1-0.1,3.7-0.3
			c1.6-0.2,2.8-0.4,3.6-0.6l0.1-15.8l-8.2,0c-3.4,0-6.2,0.7-8.5,2.1c-2.3,1.4-3.5,3.4-3.5,6c0,1.9,0.4,3.4,1.3,4.5
			c0.9,1.1,1.9,2,3.2,2.5c1.3,0.6,2.7,1,4.2,1.2C504.9,91.8,506.2,91.9,507.5,91.9z"/>
		<path class="st3" d="M585.9,34.2c0.8-0.2,2.2-0.4,4.4-0.6c2.2-0.2,4.5-0.3,7-0.3c3.2,0,6,0.1,8.5,0.3c2.5,0.2,4.3,0.4,5.3,0.6
			l-28,48l-0.1,26c-2.5,0.4-4.8,0.6-6.8,0.8c-2,0.2-3.8,0.3-5.5,0.3c-1.6,0-3.5-0.1-5.5-0.3c-2-0.2-4.2-0.5-6.6-0.9l0.1-26
			l-27.4-48.3c1.1-0.2,2.9-0.4,5.5-0.5c2.6-0.2,5.5-0.3,8.7-0.2c2.5,0,4.9,0.1,7.3,0.3c2.4,0.2,4,0.4,4.7,0.6l13.9,28.4L585.9,34.2z
			"/>
	</g>
</g>
<g>
	<path d="M600.4,104.3c-0.4-2.4-0.6-4.8-0.6-7.1c0-2.3,0.2-4.7,0.6-7.2c2.4-0.4,4.8-0.6,7.1-0.6c2.3,0,4.7,0.2,7.2,0.6
		c0.4,2.5,0.6,4.8,0.6,7.1c0,2.4-0.2,4.8-0.6,7.2c-2.5,0.4-4.8,0.6-7.1,0.6C605.2,104.9,602.8,104.7,600.4,104.3z"/>
	<path d="M654.3,92.4c0.8,1.3,1.4,2.8,1.9,4.5c0.5,1.7,0.8,3.7,0.8,6.1c-2.6,1-5,1.7-7.3,2c-2.3,0.3-4.6,0.4-7.1,0.4
		c-4.2,0-7.9-0.7-11-2c-3.1-1.3-5.7-3.2-7.7-5.5c-2-2.3-3.6-5.1-4.6-8.3c-1-3.2-1.6-6.7-1.6-10.4c0-3.7,0.5-7.1,1.5-10.3
		c1-3.2,2.5-6,4.6-8.4c2-2.4,4.6-4.3,7.6-5.6c3-1.4,6.6-2,10.6-2c1.4,0,2.7,0,3.9,0.1c1.2,0.1,2.3,0.2,3.5,0.4
		c1.1,0.2,2.2,0.5,3.3,0.8c1.1,0.3,2.3,0.7,3.7,1.3c0,1.5-0.2,3.2-0.6,5c-0.4,1.8-1,3.6-1.8,5.3c-1.9-0.6-3.6-1.1-5.1-1.3
		c-1.5-0.2-3.1-0.3-5-0.3c-4,0-7,1.3-9.1,3.9c-2,2.6-3.1,6.4-3.1,11.2c0,5.2,1.1,9.1,3.3,11.5c2.2,2.4,5.2,3.6,8.9,3.6
		c1,0,1.9,0,2.7,0c0.8,0,1.6-0.1,2.4-0.2c0.8-0.1,1.6-0.3,2.4-0.6C652.2,93.1,653.2,92.8,654.3,92.4z"/>
	<path d="M678.8,105.4c-4.1,0-7.6-0.7-10.6-2c-3-1.3-5.5-3.2-7.5-5.5c-2-2.4-3.5-5.1-4.5-8.3c-1-3.2-1.5-6.6-1.5-10.3
		c0-3.7,0.5-7.2,1.5-10.4c1-3.2,2.5-6,4.5-8.4c2-2.4,4.5-4.2,7.5-5.6c3-1.4,6.6-2,10.6-2c4.1,0,7.6,0.7,10.7,2
		c3,1.4,5.6,3.2,7.6,5.6c2,2.4,3.5,5.2,4.5,8.4c1,3.2,1.5,6.7,1.5,10.4c0,3.7-0.5,7.1-1.5,10.3c-1,3.2-2.5,5.9-4.5,8.3
		c-2,2.4-4.5,4.2-7.6,5.5C686.4,104.8,682.9,105.4,678.8,105.4z M678.8,94.9c3.6,0,6.2-1.3,7.8-4c1.6-2.7,2.4-6.6,2.4-11.6
		c0-5.1-0.8-8.9-2.4-11.6c-1.6-2.7-4.2-4-7.8-4c-3.6,0-6.1,1.3-7.7,4c-1.6,2.7-2.4,6.6-2.4,11.6c0,5.1,0.8,8.9,2.4,11.6
		C672.7,93.6,675.2,94.9,678.8,94.9z"/>
	<path d="M706.1,54c0.9-0.2,1.8-0.3,2.7-0.4c0.9-0.1,1.9-0.1,3-0.1c1.1,0,2.1,0,2.9,0.1c0.8,0.1,1.7,0.2,2.6,0.4
		c0.2,0.3,0.4,0.8,0.5,1.4c0.2,0.6,0.3,1.3,0.4,1.9c0.1,0.7,0.2,1.3,0.3,2c0.1,0.6,0.2,1.2,0.2,1.7c0.5-1,1.2-1.9,2-2.9
		c0.8-1,1.8-1.8,3-2.6c1.2-0.8,2.5-1.4,3.9-1.9c1.5-0.5,3.1-0.7,4.9-0.7c7.8,0,12.9,3,15.1,8.9c1.3-2.4,3.1-4.5,5.5-6.3
		c2.4-1.8,5.4-2.7,9-2.7c5.7,0,9.9,1.6,12.6,4.7c2.7,3.1,4,8.1,4,14.7v32c-2.3,0.4-4.6,0.6-6.9,0.6c-2.3,0-4.6-0.2-6.9-0.6V75.9
		c0-3.5-0.4-6.2-1.3-8.1c-0.9-1.9-2.6-2.8-5.3-2.8c-1.1,0-2.2,0.2-3.3,0.5c-1.1,0.3-2,0.9-2.9,1.8c-0.9,0.9-1.6,2.1-2.1,3.7
		c-0.6,1.6-0.8,3.6-0.8,6.2v27.1c-2.3,0.4-4.6,0.6-6.9,0.6c-2.3,0-4.6-0.2-6.9-0.6V75.9c0-3.5-0.4-6.2-1.3-8.1
		c-0.9-1.9-2.6-2.8-5.3-2.8c-1.1,0-2.2,0.2-3.3,0.5c-1.1,0.3-2.1,1-3,1.9c-0.9,0.9-1.6,2.3-2.1,3.9c-0.5,1.7-0.8,3.9-0.8,6.6v26.3
		c-2.3,0.4-4.6,0.6-6.9,0.6c-2.3,0-4.6-0.2-6.9-0.6V54z"/>
</g>
</svg>
