<?xml version="1.0" encoding="utf-8"?>
<!-- Generator: Adobe Illustrator 20.0.0, SVG Export Plug-In . SVG Version: 6.00 Build 0)  -->
<svg version="1.1" id="Layer_1" xmlns="http://www.w3.org/2000/svg" xmlns:xlink="http://www.w3.org/1999/xlink" x="0px" y="0px"
	 viewBox="0 0 48.2 64" style="enable-background:new 0 0 48.2 64;" xml:space="preserve">
<g>
	<g>
		<path d="M13.8,22.5c0.7,0,1.3-0.6,1.3-1.3v-5.4h-2.6v5.4C12.5,21.9,13.1,22.5,13.8,22.5z"/>
		<path d="M34.5,22.5c0.7,0,1.3-0.6,1.3-1.3v-5.4h-2.6v5.4C33.1,21.9,33.7,22.5,34.5,22.5z"/>
	</g>
	<g>
		<polygon points="17.8,17.3 30.4,17.3 31.9,17.3 31.9,15.8 16.3,15.8 16.3,17.3 		"/>
		<g>
			<path d="M1.5,63.5c-0.3,0-0.6-0.1-0.8-0.3c-0.2-0.2-0.3-0.5-0.3-0.8l2.1-45.1c0-0.6,0.5-1,1.1-1h7.1v0.5H3.2l-0.1,0.5L1,62.9
				l0.3,0.1L1.4,63l0.2,0h45.2l0.4-0.1l0.1-0.3l0-0.1l-2.2-45.7l-0.5,0h-7.1v-0.5h7.1c0.6,0,1,0.4,1.1,1l2.1,45.1
				c0,0.3-0.1,0.6-0.3,0.8c-0.2,0.2-0.5,0.3-0.8,0.3H1.5z"/>
			<path d="M44.5,15.8H37v1.5h1.5h1.1h5c0,0,0.1,0,0.1,0l2.1,45.1c0,0,0,0-0.1,0H1.5c0,0,0,0,0,0c0,0,0,0,0,0c0,0,0,0,0,0l2.1-45.1
				c0,0,0-0.1,0.1-0.1h3.8h2.3h1.5v-1.5H3.7c-0.8,0-1.5,0.6-1.6,1.5L0,62.4c0,0.4,0.1,0.8,0.4,1.2C0.7,63.8,1.1,64,1.5,64h45.1
				c0.4,0,0.8-0.2,1.1-0.5c0.3-0.3,0.4-0.7,0.4-1.1l-2.1-45.1C46,16.4,45.4,15.8,44.5,15.8L44.5,15.8z"/>
		</g>
	</g>
</g>
<g>
	<path d="M24.1,0c-6.4,0-11.6,5.2-11.6,11.6v9.5c0,0.7,0.6,1.3,1.3,1.3c0.7,0,1.3-0.6,1.3-1.3v-9.5c0-5,4-9,9-9c5,0,9,4,9,9v9.5
		c0,0.7,0.6,1.3,1.3,1.3c0.7,0,1.3-0.6,1.3-1.3v-9.5C35.8,5.2,30.5,0,24.1,0z"/>
</g>
<g>
	<path d="M18.6,44.5l1.1-11.1h10v2.4h-7.7l-0.6,5.7c0.4-0.3,0.9-0.6,1.4-0.8s1.1-0.3,1.8-0.3c1.8,0,3.3,0.6,4.3,1.7
		c1,1.2,1.6,2.8,1.6,4.8c0,2-0.5,3.6-1.6,4.8c-1.1,1.2-2.6,1.8-4.7,1.8c-1.7,0-3.1-0.5-4.2-1.4s-1.7-2.3-1.6-4.1l0-0.1h2.4
		c0,1.1,0.3,1.9,0.9,2.5c0.6,0.6,1.4,0.9,2.4,0.9c1.1,0,2-0.4,2.7-1.2s0.9-1.9,0.9-3.3c0-1.3-0.3-2.3-1-3.1
		c-0.6-0.8-1.5-1.2-2.6-1.2c-1.1,0-1.8,0.2-2.3,0.5c-0.5,0.3-0.8,0.8-1.1,1.5L18.6,44.5z"/>
</g>
</svg>
