<?xml version="1.0" encoding="utf-8"?>
<!-- Generator: Adobe Illustrator 20.0.0, SVG Export Plug-In . SVG Version: 6.00 Build 0)  -->
<svg version="1.1" id="Layer_1" xmlns="http://www.w3.org/2000/svg" xmlns:xlink="http://www.w3.org/1999/xlink" x="0px" y="0px"
	 viewBox="0 0 300 150" style="enable-background:new 0 0 300 150;" xml:space="preserve">
<style type="text/css">
	.st0{display:none;}
	.st1{display:inline;}
	.st2{fill:#010101;}
	.st3{display:inline;fill:#010101;}
	.st4{fill:#BC3F97;}
	.st5{display:inline;fill:#13BDCA;}
	.st6{display:inline;fill:#8C7C2F;}
	.st7{display:inline;fill:#FBAA19;}
	.st8{display:inline;fill:#C71D65;}
	.st9{display:inline;fill:#FFFFFF;}
	.st10{fill:#C3C3C3;}
	.st11{fill:#003597;}
</style>
<g class="st0">
	<g class="st1">
		<path class="st2" d="M154.2,68.8c0,0,0.2-3.4-4.4-3.7h-4.4v8h3.8C149.1,73.1,154.2,73.1,154.2,68.8z"/>
		<path class="st2" d="M151.1,78h-5.8v8.5h5.8c0,0,5.8,0.3,5.8-4.4C157,82.1,157.1,78,151.1,78z"/>
		<path class="st2" d="M127.7,54.2v43.2h45.8V54.2H127.7z M162.7,82.5c0,8.8-10.4,8.8-10.4,8.8h-12.5v-31h10.9
			c9.8,0.9,9.2,8.3,9.2,8.3c0,4.5-4,6.2-4,6.2C162.9,76.6,162.7,82.5,162.7,82.5z"/>
	</g>
	<g class="st1">
		<path class="st2" d="M98.3,78h-5.8v8.5h5.8c0,0,5.8,0.3,5.8-4.4C104.1,82.1,104.3,78,98.3,78z"/>
		<path class="st2" d="M101.4,68.8c0,0,0.2-3.4-4.4-3.7h-4.4v8h3.8C96.2,73.1,101.4,73.1,101.4,68.8z"/>
		<path class="st2" d="M74.9,54.2v43.2h45.8V54.2H74.9z M109.8,82.5c0,8.8-10.4,8.8-10.4,8.8H86.9v-31h10.9c9.8,0.9,9.2,8.3,9.2,8.3
			c0,4.5-4,6.2-4,6.2C110.1,76.6,109.8,82.5,109.8,82.5z"/>
	</g>
	<path class="st3" d="M180.6,54.2v43.2h45.8V54.2H180.6z M217.3,88.8c0,0-9.4,5.6-20.3,1.3c0,0-9.2-3.4-9.5-14.3
		c0,0-0.4-11.3,11.9-15.1c0,0,3.3-1.3,9.1-0.7c0,0,3.5,0.3,8.6,2.5v5.7c0,0-5.6-3.4-11.8-3.5c0,0-11.5-0.2-12.1,11.1
		c0,0-0.4,10.4,11.9,11c0,0,5.2,0.6,12.2-3.9L217.3,88.8L217.3,88.8z"/>
</g>
<g class="st0">
	<g class="st1">
		<path class="st4" d="M161.5,89c-0.4-5.4-2.7-9.4-7.4-11.8c-1.8-0.9-3.7-1.4-5.7-1.4c-2.9,0-5.7,0-8.6,0c-1.1,0-1.8-0.4-2.2-1.4
			c-1-2.2-2.1-4.3-3.2-6.6c0.4,0,0.7-0.1,1-0.1c4.3,0,8.6,0,12.9,0c8.5,0,15.2,7,14.8,15.5C163,85.1,162.3,87.6,161.5,89z"/>
		<path class="st4" d="M147.5,92.8c0,1.2,0,2.5,0,3.7c0,0.5-0.1,0.7-0.7,0.7c-6.8-0.9-11.7-5.4-13-12.1c-0.2-0.8-0.2-1.6-0.3-2.4
			c0-0.8,0.4-1.2,1.1-1.3c2.3,0,4.5,0,6.8,0c0.6,0,1,0.3,1,0.9c0.2,2.9,1.7,4.9,4.5,5.8c0.2,0.1,0.5,0.5,0.5,0.8
			C147.6,90.3,147.5,91.5,147.5,92.8z"/>
		<path class="st4" d="M149.1,97.2c0-0.7,0-1.3,0-1.9c0-2.1,0-4.2,0-6.2c0-0.5,0-0.9,0.6-1c4-0.9,6.3-6.3,2.4-9.9c0,0,0,0-0.1-0.4
			c1.3,0.8,2.5,1.3,3.5,2.1c2.5,2,4,4.5,4.2,7.8c0.1,2.7-0.8,5-2.9,6.8C154.7,96.2,152.1,96.9,149.1,97.2z"/>
		<path class="st4" d="M146.2,62c0.4-1.2,0.8-2.4,1.2-3.6c0.4-1.2,0.8-2.5,1.2-3.7c0.2-0.5,0.4-0.7,0.9-0.7c3.2,0,6.4,0,9.6,0
			c1,0,1.3,0.3,1.3,1.3c0,1.8,0,3.7,0,5.5c0,0.8-0.3,1.2-1.1,1.2c-4.2,0-8.5,0-12.7,0C146.5,62.1,146.5,62,146.2,62z"/>
		<path class="st4" d="M147.2,54L147.2,54L147.2,54h-1l0,0c-2.3,0-4.5,0-6.8,0c-0.8,0-1.1,0.4-1.3,1.1c-1,2.9-1.9,5.8-2.9,8.8
			c-0.2,0.7-0.5,1.5-0.7,2.3c2.7,0,5.3,0,7.9,0c0.7,0,1-0.3,1.1-0.9c0.8-2.4,1.6-4.8,2.4-7.2C146.3,56.8,146.7,55.5,147.2,54
			L147.2,54L147.2,54z"/>
	</g>
</g>
<g class="st0">
	<circle class="st5" cx="111.1" cy="59.9" r="5.9"/>
	<path class="st3" d="M149.5,69.3h-8.9v-8l0,0v-0.7c0-0.1,0-0.2,0-0.4c0-0.1,0-0.3,0-0.4l0,0l0,0c-0.2-1-0.8-1.8-1.7-2.1l0,0l0,0
		c-0.1,0-0.1,0-0.2-0.1c-3.7-1.2-7-0.2-7.6,0c0,0,0,0-0.1,0l0,0l0,0c-0.9,0.4-1.6,1.2-1.7,2.3l0,0l0,0c0,0.1,0,0.1,0,0.2
		c0,0.1,0,0.1,0,0.2v0.8l0,0v0.7v0.1v15.7c0,0-0.1,4.8,0.5,7.3c0,0,0.7,4.1,4.7,7.6h0.1c0,0,6-4.5,6-13.8v-3.1
		c1.2,0.6,2.9,0.6,2.9,0.6h6c0.5,0,0.8-0.4,0.8-0.8v-5.5C150.3,69.7,149.9,69.3,149.5,69.3z"/>
	<path class="st5" d="M134.4,92.9c-4-3.6-4.7-7.6-4.7-7.6c-0.2-0.8-0.3-1.9-0.4-2.9c0,1-0.1,3.1-0.5,4c0,0-0.9,3.8-5.1,4.2l0,0
		c-0.2,0-0.4,0-0.7,0c-0.1,0-0.2,0-0.3,0c-6.3,0.1-5.8-6.1-5.8-6.1V83v-3.6v-9.1c0-0.5-0.4-0.8-0.8-0.8h-9.7c-0.5,0-0.8,0.4-0.8,0.8
		v9.5V83v2c0.7,5.4,4.1,12.9,17.5,12.3c4.4,0,8.4-1.6,11.5-4.3C134.5,92.9,134.5,92.9,134.4,92.9L134.4,92.9z"/>
	<path class="st6" d="M157.8,77.8c0.1,0.1,0.8,1.4,1.1,3.5l0,0c0,0.3,0.1,0.6,0.1,1c0,3-1.8,5.7-4.4,6.9l0,0
		c-1.1,0.6-3.4,1.4-6.5,1.1l0,0c-0.1,0-0.1,0-0.2,0l0,0l0,0c-3.9-0.2-7-3.3-7.2-7.2l0,0V79c0,9.4-6,13.8-6,13.8h-0.1h0.1
		c0,0,4.3,4.4,14,4.4c0,0,10.5,0.4,16.2-8.4L157.8,77.8z"/>
	<path class="st7" d="M191.3,71.5c0-0.5-0.3-0.9-0.8-0.9l-5.1-1.5c-0.1,0-0.1-0.1-0.2-0.1l0,0l0,0c-0.1,0-0.1,0-0.2,0
		c-0.4,0-0.8,0.3-0.9,0.7c0,0-3,10-7.5,18.2c0,0-6.9-13.1-10-17.5c0.1,0.2,0.3,0.5,0.4,0.7l0,0c0,0,1.2,2.8,0.8,6.8
		c0,0-0.3,5.1-2.1,8.9l-1,2.1l3.4,5.2c0.1,0.1,0.2,0.3,0.3,0.5l0,0l0,0c0.7,0.9,1.8,2.2,3.2,2.4l0,0l0,0l0,0c2.9,0.7,5.2,0,5.2,0
		l0,0l0,0l0,0c2.2-0.3,3.7-2.9,3.7-2.9s6-10.1,8.4-16.1c0,0,0.9-2,2.4-6.1l0,0C191.3,71.7,191.3,71.6,191.3,71.5z"/>
	<path class="st8" d="M167,71.1L167,71.1c-0.5-1.3-1.7-2.3-3.2-2.3c-0.2,0-0.3,0-0.5,0l0,0c0,0-3.1,0.1-5.8,2.8l0,0
		c-0.8,0.6-1.3,1.6-1.3,2.6c0,0.6,0.1,1.1,0.4,1.6l0,0c0.2,0.5,1.2,2,1.2,2l6.9,10.9l1-2.1c1.8-3.8,2.1-8.9,2.1-8.9
		C168.2,73.9,167,71.1,167,71.1z"/>
</g>
<g class="st0">
	<path class="st1" d="M152.5,78.2l0.6,0.4c-0.1-0.7,0-1.8,0-1.8c-0.4,0.3-0.6,0.9-0.6,0.9l-0.6,0.1L152.5,78.2L152.5,78.2z
		 M176.6,83c-0.1-0.1-0.2-0.3-0.4-0.3s-0.4,0.2-0.4,0.4s0.2,0.4,0.4,0.4S176.6,83.3,176.6,83C176.7,83.1,176.6,83,176.6,83L176.6,83
		z M176.6,81.2L176.6,81.2c0,0.3-0.1,0.5-0.3,0.5v0.5c0.2,0,0.4,0.1,0.5,0.3c0.1,0.1,0.2,0.3,0.2,0.5c0,0.4-0.2,0.7-0.6,0.8
		c0.9-0.1,1.5-0.2,1.5-0.2c-0.9-0.2-0.4-0.7-0.4-0.7c0.4-0.3,1.2-0.6,1.2-0.6c-0.9-0.1-1.4-0.8-1.7-1.3h-0.4V81.2z M176.2,84
		c-0.4-0.1-0.6-0.4-0.6-0.8s0.3-0.8,0.6-0.8v-0.5c-0.2,0-0.4-0.2-0.4-0.4l0,0c-0.4,0.1-0.7,0.1-0.7,0.1c-0.1,0.2,0.1,0.3,0.1,0.3
		c0.8,0.6,0.3,1.1,0.3,1.1c-0.4,0.3-0.6,0.3-0.6,0.3c-0.4,0.1-1.3,0.9-1.3,0.9C174.5,84.1,175.4,84,176.2,84L176.2,84z M166.1,80.6
		c0.1,0,0.1,0,0.2-0.1l0.7,0.3c0,0.2,0.1,0.4,0.3,0.4c0.1,0,0.2-0.1,0.3-0.2l0.6,0.1c0,0.2,0.2,0.3,0.3,0.3c0.2,0,0.3-0.2,0.4-0.4
		l0.5-0.2c0.1,0.1,0.2,0.2,0.3,0.2c0.2,0,0.4-0.2,0.4-0.4l0.3-0.6c0.9,0.1,1.9,0,1.9,0c1-0.5,1.8-0.8,1.8-0.8
		c-0.3,0.2-0.6,0.4-0.8,0.6c-0.3,0.3-0.5,0.6-0.5,0.6c-0.3,0.3-0.4,0.6-0.4,0.9s0.2,0.6,0.2,0.6c0.2,0.2,0.4,0.3,0.4,0.3l0.4,0.4
		c-0.3,0.3-1.1,0.4-1.1,0.4c-0.4,0.1-1-0.1-1-0.1c-1.3-0.3-1.7,0.3-1.7,0.3c-0.3,0.3-0.7,0.3-0.7,0.3l0.2,0.3c-0.5,0.1-0.7,0-0.7,0
		c0-0.6,0.3-1.3,0.3-1.3c-0.1-1-2.2-0.8-2.2-0.8l-0.5-0.5l-0.1-0.1l-1.2-1.1c0,0.3-0.1,0.8-0.3,1.2c-0.1,0.3-0.3,0.6-0.3,0.6
		l-0.4-0.2c0.1-0.1,0.1-0.3,0.2-0.4c0.4-0.9,0.6-2.1,0.6-2.1c0.2,0,0.4,0,0.6,0.1c0.1,0.1,0.2,0.1,0.2,0.1c0.1,0,0.2,0.1,0.3,0.1
		L166,80c0,0.1-0.1,0.1-0.1,0.2C165.8,80.4,165.9,80.6,166.1,80.6L166.1,80.6z M170.2,80l-0.2,0.3c-0.1-0.1-0.2-0.2-0.3-0.2
		c-0.2,0-0.3,0.2-0.3,0.4v0.1l-0.5,0.2c-0.1-0.2-0.2-0.3-0.4-0.3s-0.3,0.2-0.3,0.4l-0.6-0.1v-0.1c0-0.2-0.1-0.4-0.3-0.4
		c-0.1,0-0.3,0.1-0.3,0.3l-0.7-0.3c0-0.1,0-0.1,0-0.2c0-0.2-0.1-0.4-0.3-0.4h-0.1l-0.2-0.3l0,0c0.9,0.3,2.1,0.5,2.1,0.5h0.8l0.3-0.4
		C169.3,79.8,169.7,79.9,170.2,80L170.2,80z M165.8,73.7l0.1,0.1v0.1h-0.1c-0.1,0-0.3,0.1-0.3,0.3l0,0l-0.3-0.3l-0.1-0.1l-0.7-0.7
		c-0.8-1-2,0-2,0l-0.2-0.1c0.6-0.4,0.1-0.8,0.1-0.8l1.2-3.1l-0.3-0.4c0.6-1.2-0.7-1.3-0.7-1.3c-0.4-1.1-1-0.6-1-0.6
		c-0.2-1.1-1-0.5-1-0.5c-0.3-0.7-1-0.3-1-0.3v-1.7h-0.8h-0.9l0.1,1.8c-0.9-0.4-1,0.4-1,0.4c-1-0.6-1,0.6-1,0.6
		c-0.8-0.3-0.8,0.6-0.8,0.6c-1.1,0.1-1,1.1-1,1.1l0.9,3c-0.2,0.6-2.8,3.8-2.8,3.8l-1.1-0.3l-0.1-0.2c0.3,0.1,0.4,0.1,0.4,0.1
		c-0.1-0.4,0-1.1,0-1.1c0.3-1.4-0.3-2-0.3-2c0-0.6-0.4-1.3-0.4-1.3c0.6-0.7-0.3-1.4-0.3-1.4l-0.1-0.2v-1.5c-0.1,0-0.2-0.2-0.2-0.2
		c-0.2-0.6-0.6-0.2-0.6-0.2c-0.3-0.7-0.8-0.1-0.8-0.1c-0.4-0.6-0.8,0-0.8,0l-0.3-1.1l-1.1,0.4l0.4,1.2c-0.8-0.2-0.6,0.6-0.6,0.6
		c-0.7,0-0.4,0.7-0.4,0.7c-0.7,0.1-0.4,0.8-0.4,0.8l0.7,1.2c-0.6,0.7,0,1.1,0,1.1c0.2,0.3,0.4,0.3,0.4,0.3c-0.3,1,0.1,2,0.1,2
		c-0.5,0.6-1.2,1-1.8,1.3c-0.9,0.4-1.7,0.7-1.7,0.7c-1.4,0.3-4.3,1.3-4.3,1.3c-1,0.3-2.6,0.7-2.6,0.7c-2,0.6-2.5,0-2.5,0
		c-0.5-0.3-0.1-1.1-0.1-1.1c0.5-1,1.5-1.2,1.5-1.2c0.7,0.4,1,0.7,1,0.7c0.4,0.4,1.2,0.4,1.2,0.4v-0.1c0.3,0,0.6-0.1,0.6-0.1
		c-0.2-0.2-0.2-0.5-0.2-0.5c0-0.2-0.3-0.5-0.3-0.5l5.1-0.2c0.2,0,0.3,0,0.5-0.1c1.8-0.3,2.2-0.7,2.2-0.7c1.2-1,0.7-2.6,0.7-2.6
		c-0.7-1.5-2-1.6-2-1.6c-1-0.3-1.7-0.1-1.7-0.1c-0.6,0-1.7-0.3-1.7-0.3c0,0.2,0.4,0.9,0.4,0.9c-0.6,0-0.9-0.3-0.9-0.3
		c-0.6-0.6-1.5-0.3-1.5-0.3c0.1,0.3,1,1,1,1c-0.5,0-1.9-0.6-1.9-0.6c0.3,1.2,1.7,2.1,1.7,2.1c1.7,0.7,3.1,0,3.1,0
		c0.7-0.4,1.4-0.7,1.4-0.7c0.9-0.3,1.1,0.5,1.1,0.5c-0.1,1.3-1,1.3-1,1.3c-2.7,0.6-6.2,0.2-6.2,0.2c0.3-0.3,0.3-1.2,0.3-1.2
		l-0.3,0.1c-1.6-0.1-2,0.2-2,0.2c-0.6,0.3-0.8,1-0.8,1c-0.7,0.3-1.3,0.7-1.7,1c-1,1-1.1,2.1-1.1,2.1c-0.1,1.3,0.7,1.5,0.7,1.5
		c-0.7,1.3,0.3,1.8,0.3,1.8c0.4-0.3,0.6-0.7,0.6-0.7c0.9-0.7,3.5-1.2,3.5-1.2c-0.5,0.4-0.8,1.6-0.8,1.6c-0.4,0.1-1.2-0.1-1.2-0.1
		c-0.4,0-0.4,0.3-0.4,0.3l-0.2,0.4l-0.3,0.8c-1.6-0.1-1.4,0.8-1.4,0.8l-0.2,2.5c0.4,0.9,1,0.8,1,0.8v-0.9h0.4c0.5,1,1.2,1.2,1.2,1.2
		h0.2c0.3-0.1,0.4,0.3,0.4,0.3h0.3v-0.6h0.3c0.2,0.1,0.3,0.4,0.3,0.4h0.2c0.1-0.1,0.1-0.6,0.1-0.6c0.3-0.2,0.2-0.9,0.2-0.9
		c0.6-0.1,1.2,0.1,1.2,0.1v0.6c0.4,0.7,1,0.9,1,0.9c0.4,0.1,0.9,0.2,1.6,0.2c1.1,0.1,2.6,0,3.9,0c2.3-0.1,4.3-0.3,4.3-0.3
		c0.1,0.2,0.2,0.2,0.2,0.2c0.6,0.2,1.3-0.4,1.3-0.4l-0.2,0.4c0.5,0,1-0.4,1-0.4c0.2,0.3,0.5,0.4,0.5,0.4l0.1-0.1l0.1,0.2
		c0.3-0.1,0.5-0.7,0.5-0.7c0.3,0.3,0.8,0.2,0.8,0.2l0.1,0.2l0.1-0.2c0.2,0.1,0.6,0.3,0.6,0.3c0.4-0.6,0.3-1.4,0.3-1.4l0.1,0.2
		l0.1-0.4c0.2,0.2,0.6,0.2,0.6,0.2c-0.7,0.3-0.3,0.8-0.3,0.8c0.1,0.2,0.4,0.3,0.4,0.3c0.4,0,0.5,0.4,0.5,0.4
		c0.5,0.3,0.9-0.3,0.9-0.3l0.1-0.4c-0.1-0.3-0.1-0.7-0.1-0.7l0.1,0.5l0.2,0.1l1.3,1l1.1-0.9c0.6,0.4,1.4,0.4,1.4,0.4
		c0.3,0,0.1-0.4,0.1-0.4c1,0.8,2.4,0.6,2.4,0.6c0.2-0.2,0.1-0.3,0.1-0.3c0.3-0.1,0.7,0.3,0.7,0.3c0.4,0.3,0.9,0,0.9,0
		c0-0.2-0.2-0.2-0.2-0.2c0.3,0,0.1-0.4,0.1-0.4c0.3,0,0.5,0.3,0.5,0.3c0.2,0.3,0.6,0.2,0.6,0.2v-0.2c0.3,0.2,0.9,0.2,0.9,0.2
		c0.1-0.1,0-0.4,0-0.4c2.7,0.8,6.6,0.7,6.6,0.7c5.1,0,5.8-1,5.8-1c0.2-0.2,0.1-0.5,0.1-0.5v-0.3c0.3-0.1,0.7,0,0.7,0l-0.4,0.8
		l-0.1,0.3c0.9,1,2.2-0.1,2.2-0.1v-0.3c0.3-0.1,0.5-0.4,0.5-0.4l0.6,0.2c0.1,0.3-0.1,0.7-0.1,0.7c0.9,0.3,1.3-0.7,1.3-0.7l-0.5-2.5
		c-0.7-0.9-2.1-0.7-2.1-0.7v-0.6c-0.1-0.2-0.3-0.4-0.6-0.4l-0.3-0.1l-0.3,0.1c-0.4,0-1,0-1,0l0,0l0.1-0.9v-1l-0.1-0.3l0.8,0.1
		c0.6,0.3,2,0.3,2,0.3c0.4,0.2,0.4,0.6,0.4,0.6l-0.1,0.5c1.3-0.1,1.1-1.5,1.1-1.5c0.9-0.7,0.7-2.7,0.7-2.7c-0.1-0.5-0.3-0.8-0.4-0.9
		l0,0c0-1.2-1.3-1.8-1.3-1.8c-0.2-0.2-0.5-0.2-0.5-0.2c-0.3-0.1-0.7-0.6-0.7-0.6c-0.5,0.9-0.1,1.6-0.1,1.6c-0.7-0.1-4.4,0.6-4.4,0.6
		c-0.9,0.2-2.4-0.3-2.4-0.3c-0.9-0.5-0.8-1.2-0.8-1.2c0.2-1.1,1.1-0.9,1.1-0.9c0.1,0,0.3,0,0.3,0c0.8-0.1,1.3,0.1,1.3,0.1
		c1.6,0.7,4.3,0,4.3,0c1.3-0.5,1.7-2.2,1.7-2.2c-0.9,0.8-1.7,0.7-1.7,0.7c-0.2,0-0.6,0.1-0.6,0.1c0.1-0.6,0.9-0.9,0.9-0.9
		c-1-0.4-2,0.3-2,0.3c-0.5,0.6-1.7,0.7-1.7,0.7c0.9-0.3,1.3-1.3,1.3-1.3c-0.6,0.3-1.5,0.3-1.5,0.3c-1.5-0.3-3.2,1.1-3.2,1.1
		c-1.5,1.4-0.8,2.9-0.8,2.9c0.2,0.4,0.6,0.8,1.1,1c0.7,0.3,1.4,0.4,1.4,0.4c1.6,0.2,4.8-0.2,4.8-0.2c0.3-0.1,0.6-0.1,0.6-0.1
		c-0.6,0.4-0.7,1.4-0.7,1.4c0.6-0.2,1-0.2,1-0.2V77c0.7-0.1,1.3,0,1.3,0c0.4,0,0.4-0.3,0.4-0.3c0.4,0.7-0.4,1.4-0.4,1.4
		c-0.5,0.5-1.7,0.1-1.7,0.1c-0.6-0.3-2.2-0.4-2.2-0.4c-0.3-0.4-3.7-1-3.7-1c-0.2-0.3-0.5-0.2-0.5-0.2h-0.3c-0.3-0.7-1-0.3-1-0.3
		c-0.5-0.1-1.3-0.5-1.7-0.8c-0.2-0.1-0.3-0.2-0.3-0.2c1.8-2,1.7-4.1,1.7-4.1c-0.2-3-2.7-3.5-2.7-3.5c-0.4-0.9-1.6-1-1.6-1l-0.1,0.2
		l0.1,0.3c0,0.2,0.2,0.5,0.2,0.5l-0.5,0.1l-3-1.7c-0.7-0.2-0.4,0.4-0.4,0.4l0.1,0.2l2.6,2c-0.3,0.5-1.1,1.2-1.1,1.2l-0.3,0.1
		l-0.4,0.4V71c-0.2,0.2-0.6,0.2-0.6,0.2v0.4c0.3,0.4,1,0.4,1,0.4l0.6,0.6c0.2,0.1,0.3,0,0.3,0l0.5-0.6l0.7-0.3
		c0.2,0.1,0.5,0.1,0.5,0.1c-0.5,0.2-1,0.9-1,0.9c-0.4-0.1-1.1,0-1.1,0l-0.1,0.4v0.1l-0.2-0.1c-0.3-1.1-1.1-0.4-1.1-0.4
		C165.5,73,165.7,73.5,165.8,73.7L165.8,73.7z M165.8,74.5c0.1,0,0.2-0.2,0.2-0.3v-0.1V74c0.2,0.1,0.3,0.2,0.4,0.2
		c0.4,0,0.5-0.6,0.5-0.6h0.1l-0.1,0.4c-0.4,0.2-0.7,1-0.7,1L165.8,74.5L165.8,74.5z M166.1,73.4c-0.2-0.4,0.2-0.6,0.2-0.6
		c0.5-0.1,0.4,0.6,0.4,0.6c-0.1,0.2-0.3,0.2-0.3,0.3C166.1,73.7,166.1,73.4,166.1,73.4L166.1,73.4z M145.9,81.2
		c-0.3,0.3-0.8,0.6-1.5,0.7l-0.3,0.5l0.7,0.2l0.1,0.1l0.6,0.2c0,0,0-0.4,0.5-0.3c0,0,0.3-0.9,1.7-0.6c0,0,0.2-0.1,0.5,0.1
		c0.1,0.1,0.2,0.1,0.3,0.3l-0.1-0.5c0,0,0.1-0.2,0.5-0.1c0,0-0.1-0.1-0.3-0.4c-0.1-0.2-0.3-0.5-0.3-0.7c0,0,0.4-0.2,0.9-0.1v-0.4
		h0.3l-0.5-0.3c0,0-1.2,1.4-3.5,0.7c-0.4-0.1-0.8-0.3-1.3-0.5C144.2,80.1,144.6,81.2,145.9,81.2C146.2,80.9,146.1,81,145.9,81.2
		L145.9,81.2z M140,81.2c0.7,0.2,2,0.3,2,0.3c-0.1,0.1-0.2,0.2-0.3,0.3c-0.4,0.3-0.7,0.4-0.7,0.4c-0.2,0.4-0.1,1-0.1,1
		c0.1,0.1,0.4,0.3,0.7,0.4c0.4,0.1,0.7,0.3,0.7,0.3c-0.5,0.1-1,0.1-1.4,0c-0.4,0-0.7-0.1-0.7-0.1l0.2-0.4c-0.2-1-1.6-1.1-1.6-1.1
		l0.1-0.4c0.2-0.2,0.4-0.5,0.4-0.7c0.1-0.1,0.1-0.2,0.1-0.2C139.6,81,139.8,81.1,140,81.2L140,81.2L140,81.2L140,81.2L140,81.2
		L140,81.2L140,81.2L140,81.2L140,81.2L140,81.2L140,81.2L140,81.2L140,81.2L140,81.2L140,81.2L140,81.2L140,81.2z M166.2,84.3
		c-0.1,0.1-0.2,0.1-0.2,0.3c0,0,0.1,0.2,0.6,0.4c0,0,0.1-0.4,0-0.9C166.6,84.1,166.4,84.1,166.2,84.3L166.2,84.3z M149.4,83.6
		l0.3-0.1c0,0-0.3-0.2-0.3-0.4c0,0,0-0.3-0.3-0.5v0.3v0.4l0.1,0.1v0.3L149.4,83.6L149.4,83.6z M150.6,84.9v0.6l0.5-0.5
		c-0.1,0-0.1,0-0.2-0.1c-0.2-0.1-0.3-0.4-0.3-0.4V84.9L150.6,84.9z M152.3,81.2c0.3,0,0.5,0,0.6,0.1c0-0.2,0.1-0.5,0.5-0.5
		c0,0-0.8-0.1-1.5-0.4c-0.4-0.1-0.9-0.3-1-0.6l-0.3,0.1l-0.3,0.1v0.1c0,0,0.7,0.1,1.1,0.4v-0.1C151.3,80.5,152,80.6,152.3,81.2
		L152.3,81.2z M154.2,82.7c0-0.1,0-0.2,0-0.3l0.6,0.6c0,0,0.1,0.4-0.1,0.6c0,0-0.1-0.1-0.3-0.2c-0.1,0-0.2-0.1-0.3-0.1v-0.5
		C154.1,82.9,154.2,82.8,154.2,82.7L154.2,82.7z"/>
	<path class="st1" d="M109.3,62.5c0,0,5.5,2.8,6.2,3.4s0.3,0.9,0.3,0.9s-0.3,0.4-0.9,0.5s-0.4,0.6-0.4,0.6L114.4,81
		c2.6,2.5,5,1.2,5,1.2c0.9-0.3,0.8-1.1,0.8-1.1s0.2-12.3,0.1-12.7c-0.1-0.4-0.4-0.4-0.4-0.4s-2.3-1.4-2.7-1.7c-0.4-0.3,0-0.7,0-0.7
		s3.9-2.7,4.4-3.2c0.6-0.5,1-0.2,1-0.2s6.4,3.6,7.1,4.1c0.7,0.6,0.4,0.7,0.4,0.7s-1.4,1.4-1.8,1.8c-0.4,0.4-0.2,0.7-0.2,0.7
		L128,81.6c-0.5,3.1-5.4,3.5-5.4,3.5c-5.9,0.1-8.6-2.4-8.6-2.4c-2.3-1.4-5-0.4-5-0.4c-3.4,1.2-3.7,3.4-3.7,3.4
		c-0.1,1.6,1.7,2.4,1.7,2.4c2.2,1.4,5.4,0.5,5.4,0.5c2.7-0.9,6.9-2.3,6.9-2.3c2.6-0.6,4.7-0.1,4.7-0.1c2.4,0.5,3.3,1.6,3.3,1.6
		c1.5,1.6,1.4,3.5,1.4,3.5c0.1,4.3-5.2,5.8-5.2,5.8c-2.4,0.5-3.1-0.1-3.1-0.1c-1.7-0.4,0.1-0.6,0.1-0.6s-3.1,0.2,0.3,0
		c3.4-0.1,3.7-1.7,3.7-1.7c1.2-2.2-0.7-2.5-0.7-2.5c-2.6-0.4-5.4,1.7-5.4,1.7c-6.3,2.8-11,0.5-11,0.5c-4.9-1.9-4.2-5.5-4.2-5.5
		c0.1-4.7,3.1-6.5,3.1-6.5L106.1,68c-0.1-0.4-0.5-0.5-0.5-0.5s-2-0.8-2.4-1.3c-0.3-0.4,0.2-0.6,0.2-0.6l4.7-3.1
		C108.6,61.7,109.3,62.5,109.3,62.5L109.3,62.5z M18.4,60.3c-0.7-0.5,0.1-0.7,0.1-0.7l7-5.2h18.6c4,0.4,3.7,5.5,3.7,5.5l-0.1,19
		c-6.5,1.3-9.7,6.8-9.7,6.8c-6.1-1.7-16.5-0.2-16.5-0.2c-0.9,0.1-0.3-0.6-0.3-0.6c3.6-6.3,10.6-6.2,10.6-6.2c0.4,0,0.9,0,1.3,0V60.4
		L18.4,60.3L18.4,60.3z M27.7,61.3c1.4-0.6,1.1,0.3,1.1,0.3v10.6c-0.1,4.5-3.6,6.9-3.6,6.9c-1,1.4-5,3-5,3c-1.4,0.5-0.6-0.8-0.6-0.8
		c1.3-1.9,1.3-3.3,1.3-3.3V65.3c0-0.4,0.1-0.5,0.1-0.5L27.7,61.3L27.7,61.3z M33.8,78.9c3.2,0.3,5.6,1.5,5.6,1.5l-0.1-8.2l0,0
		c0,0-2.6-3.4-5.5,0.1V78.9L33.8,78.9z M39.3,71.3v-3.4c-1,0.9-3.3,2.5-5.5-0.4v3.9C36.2,68.9,38.4,70.5,39.3,71.3L39.3,71.3z
		 M39.3,67v-5.7c0.3-1-1.1-0.7-1.1-0.7l-4.4-0.1v5.9C36.3,70.5,39.1,67.3,39.3,67L39.3,67z M90.2,58c0,0,8.1-2.6,9.2-2.9
		c1.1-0.3,1,0.3,1,0.3s-0.2,23.1,0,23.9c0.2,0.8,0.6,0.6,0.6,0.6s1.9,1.3,2.3,1.5s0.2,0.6,0.2,0.6l-4.6,3.5c0,0-7.5-3.3-8-3.7
		c-0.7-0.5-0.3-0.8-0.3-0.8l1.3-1.3c0,0,0.2-18.9-0.1-19.9c-0.4-1-1.5-1.4-1.5-1.4C89.9,58.1,90.2,58,90.2,58L90.2,58z M81.1,61.9
		c0.3,0.6,0.9,0.5,0.9,0.5c3-1.2,4.1-4,4.1-4c0.7-2.8-1-3.5-1-3.5c-1.5-0.9-2.7-0.2-2.7-0.2c-1.8,1-2.2,2.8-2.2,2.8
		C79.8,60,81.1,61.9,81.1,61.9L81.1,61.9z M79.8,63.2c0,0-4.8,3-5.2,3.5c-0.4,0.6-0.1,0.8-0.1,0.8s2.1,1.3,2.6,1.5
		c0.6,0.2,0.4,0.5,0.4,0.5l0.1,9.6c0.1,0.3,0,0.9,0,0.9s-0.8,0.7-1.3,1c-0.5,0.4-0.1,0.9-0.1,0.9l7.4,3.7c0,0,5-3.6,5.5-3.8
		c0.4-0.2,0-0.6,0-0.6S87,80,86.7,79.9c-0.4-0.2-0.2-0.6-0.2-0.6s-0.3-9.5-0.1-10.3c0.2-0.8,0.4-0.5,0.4-0.5s0.7-0.2,1.2-0.6
		c0.6-0.4,0-0.7,0-0.7s-6.9-3.6-7.4-4.1C80.2,62.7,79.8,63.2,79.8,63.2L79.8,63.2z M49.2,79.2c0-0.1,0.6,5.6,7.8,6.5l4.8-3.9
		c0,0,0.3-0.4,0.6-0.1l8.1,4l4.9-3.9c0,0,0.2-0.4-0.1-0.9l-3.4-2.3v-9.4c0,0,0-0.4,0.3-0.5l1.3-1.1c0,0,0.2-0.4-0.2-0.8
		c-0.4-0.5-8.5-4.5-8.5-4.5s-0.3-0.4-1,0.1c0,0-8.8,3.5-12.3,8.1C51.5,70.4,48.7,72.2,49.2,79.2L49.2,79.2z M56.1,76.1
		c0.2,0.4-1.5-2.4-0.7-5.5c0,0,0.1-2.7,3.2-4.1l4.2,2.8l-0.1,10.9c0,0-0.6,0.9-1.9,0.3C61,80.6,57.5,78.9,56.1,76.1L56.1,76.1z"/>
	<path class="st1" d="M259.5,63.5c0,0-4.8,2.9-5.2,3.5s-0.1,0.8-0.1,0.8s2.1,1.3,2.6,1.5c0.6,0.2,0.4,0.5,0.4,0.5l0.1,9.6
		c0.1,0.3,0,0.9,0,0.9s-0.8,0.6-1.3,1c-0.5,0.4-0.1,0.9-0.1,0.9l7.4,3.8c0,0,5-3.6,5.5-3.8c0.4-0.2,0-0.5,0-0.5s-2.1-1.3-2.5-1.4
		c-0.4-0.2-0.2-0.6-0.2-0.6s-0.3-9.5-0.1-10.3c0.2-0.7,0.4-0.5,0.4-0.5s0.7-0.2,1.3-0.6c0.5-0.4,0-0.7,0-0.7s-6.9-3.6-7.4-4.1
		C259.9,63,259.5,63.5,259.5,63.5L259.5,63.5z M186.1,60.3c-1.1-0.6-0.3-0.9-0.3-0.9l5.8-3.7c0.3-0.3,0.6,0.1,0.6,0.1l5.2,3.1
		c0,0,7.1-3.8,7.6-4.1c0.3-0.2,0.6,0.1,0.6,0.1l6,3.3l6-3.8c0.7-0.6,0.9-0.2,0.9-0.2l7,4.1c0.6,0.4,0.3,0.5,0.3,0.5V78
		c0.3,2.4,2.3,3.3,2.3,3.3c0.6,0.4,0.3,0.8,0.3,0.8L223,86c-4.7-1.6-5.1-5.4-5.1-5.4V62.3c-0.1-0.6-0.6-0.8-0.6-0.8l-3.6-1.8v8.1
		h3.9l-3.9,5.6v6.7l2.7,1.8c0.4,0.4-0.2,0.5-0.2,0.5l-5.6,3.5l-8.3-4.4c-0.8-0.5-0.2-0.8-0.2-0.8l1.8-1.1v-5.9h-4v7.5l1.3,0.9
		c0.4,0.4-0.1,0.7-0.1,0.7l-5.6,3.1l-7.3-3.8c-0.6-0.4,0-0.7,0-0.7l2.1-1.2V63.3l-4-2.9L186.1,60.3L186.1,60.3z M213,59.5
		c-1.1-0.3-0.9,0.3-0.9,0.3l0.1,7.4v0.6h0.9L213,59.5L213,59.5z M213,73.7h-0.9v5.4c0,0.1,0.5,0.3,0.5,0.3l0.4,0.3V73.7L213,73.7z
		 M199.8,72.7l3.3-4.9h0.7v-5.5c-0.1-0.3-0.5-0.6-0.5-0.6l-3.5-1.8V72.7L199.8,72.7z M199.2,59.8c-1,0-1.1,0.7-1.1,0.7L198,80.2
		c0,0.1,0.3,0.2,0.3,0.2l0.9,0.5L199.2,59.8L199.2,59.8z M228.9,79.2c0-0.1,0.6,5.6,7.8,6.5l4.8-3.9c0,0,0.3-0.4,0.6-0.1l8.1,4
		l4.9-3.9c0,0,0.2-0.4-0.1-0.9l-3.4-2.3v-9.4c0,0,0-0.4,0.3-0.5l1.3-1.1c0,0,0.2-0.4-0.2-0.8c-0.4-0.5-8.5-4.5-8.5-4.5
		s-0.3-0.4-1,0.1c0,0-8.8,3.5-12.3,8.1C231.2,70.4,228.4,72.2,228.9,79.2L228.9,79.2z M235.8,76.1c0.2,0.4-1.5-2.4-0.7-5.5
		c0,0,0.1-2.7,3.2-4.1l4.2,2.8l-0.1,10.9c0,0-0.6,0.9-1.9,0.3C240.7,80.6,237.2,78.9,235.8,76.1L235.8,76.1z M269.9,58
		c0,0,8.1-2.6,9.1-2.9c1-0.3,1,0.3,1,0.3s-0.2,23.4,0,24.2s0.6,0.6,0.6,0.6s1.9,1.3,2.3,1.5s0.2,0.6,0.2,0.6l-4.6,3.5
		c0,0-7.5-3.3-8-3.7c-0.7-0.5-0.3-0.8-0.3-0.8l1.3-1.3c0,0,0.2-19.2-0.1-20.2c-0.4-1-1.5-1.4-1.5-1.4C269.6,58.1,269.9,58,269.9,58
		L269.9,58z M260.8,62.2c0.3,0.6,0.9,0.5,0.9,0.5c2.9-1.2,4.1-4,4.1-4c0.7-2.7-1-3.5-1-3.5c-1.6-1-2.7-0.2-2.7-0.2
		c-1.8,1-2.3,2.8-2.3,2.8C259.5,60.3,260.8,62.2,260.8,62.2L260.8,62.2z"/>
	<path class="st9" d="M146.8,66.3l0.5-0.3v0.4l0.2-0.2l0.2,0.5h-0.3l0.2,0.2c0.4,0.3,0.1,0.6,0.1,0.6l-0.2,0.1
		c-0.6,0.2-0.4-0.7-0.4-0.7l-0.2,0.2l-0.2-0.6h0.3L146.8,66.3L146.8,66.3z"/>
	<path class="st9" d="M146.3,68.6c0.4,0,0.5,0.4,0.5,0.4c0-0.6,0.5-0.1,0.5-0.1c-0.3,0.1-0.4,0.3-0.4,0.3c0,0.4,0.6,0.4,0.6,0.4
		c0.5-0.3,0.4-0.5,0.4-0.5c0.1-0.4-0.4-0.2-0.4-0.2l-0.2-0.4h0.3v-0.1l-0.3-0.1l0.8-0.4L148,68l0.1,0.1l0.2-0.2l0.1,0.6
		c-0.4-0.1-0.2,0.3-0.2,0.3c0.2,0.2,0.4,0.3,0.5,0.2c0.2-0.1,0.2-0.2,0.2-0.2c0.2-0.3,0-0.4,0-0.4c-0.3,0.1-0.3,0.2-0.3,0.2
		c-0.1-0.8,0.3-0.6,0.3-0.6c-0.1-0.4,0-0.6,0-0.6c0.3,0.1,0.3,0.4,0.3,0.4c0.4-0.5,0.5,0,0.5,0c-0.6,0.1-0.3,0.4-0.3,0.4
		c0.1,0.2,0.2,0.3,0.3,0.2c0.2-0.1,0.3-0.7,0.3-0.7c-0.3-0.5-1.2-0.6-1.2-0.5v0.3l-0.4,0.1l-0.1-0.2h-0.1v-0.2c1.1-0.4,2,0.5,2,0.5
		v1.5c-1.6,0.2-3.5,1.5-3.5,1.5l-0.8-1.3c0.3-1.1,1.3-1.7,1.3-1.7l0.1,0.1l-0.2,0.2l0.1,0.3l-0.4,0.4l-0.4-0.2
		c-0.2,0.3-0.3,0.6-0.3,0.9l0.3,0.6c0.5,0.2,0.3-0.4,0.3-0.4c-0.1-0.2-0.3,0.2-0.3,0.2c-0.3-0.6,0.1-0.6,0.1-0.6
		C146.2,68.9,146.3,68.6,146.3,68.6L146.3,68.6z"/>
	<path class="st9" d="M134.3,82.2c-0.5,1.2-0.2,2.9-0.2,2.9h-0.3v-2c-0.9-0.2-0.5-0.5-0.5-0.5C133.6,82,134.3,82.2,134.3,82.2
		L134.3,82.2z"/>
	<path class="st9" d="M135.9,85.9c0.2,0.3,0.1,0.7,0.1,0.7c-0.1-0.3-0.4-0.3-0.4-0.3C135.5,85.9,135.9,85.9,135.9,85.9L135.9,85.9z"
		/>
	<path class="st9" d="M136.6,85.9c0.2-0.1,0.2-0.4,0.2-0.4c0.4,0.2,0.1,0.8,0.1,0.8C136.9,86,136.6,85.9,136.6,85.9L136.6,85.9z"/>
	<path class="st9" d="M136.1,84.4c0.6-0.1,0.7,0.4,0.7,0.4c0.3,0.3,0.3-0.1,0.3-0.1C136.8,83.7,136.1,84.4,136.1,84.4L136.1,84.4z"
		/>
	<path class="st9" d="M136.9,85.1c0.2,0.1,0.3-0.1,0.3-0.1c0.1,0.3,0,0.6,0,0.6c0-0.3-0.2-0.3-0.2-0.3v-0.2H136.9z"/>
	<path class="st9" d="M137.4,84.7c-0.4-1.4-1.3-0.4-1.3-0.4c-0.3-0.9,0.1-1.5,0.1-1.5c0.6,0.1,1.3,0,1.3,0c0.2,0,0.1,0.1,0.1,0.1
		c0.1,0.7-0.3,0.7-0.3,0.7c0.3,0.3,0.4,0.1,0.4,0.1c0.6,0.1,1.1-1.1,1.1-1.1c0.6,0,1.2,0.4,1.2,0.4c0.4,0.3,0,0.4,0,0.4
		c-0.5-0.1-1.4,0.1-1.4,0.1c-0.1,0.1-0.1,0.3-0.1,0.3c0.1,0.2,0.1,1,0.1,1C138.1,84.7,137.4,84.7,137.4,84.7L137.4,84.7z"/>
	<path class="st9" d="M139.8,80.6c0.2-0.6,1.3-1.1,1.3-1.1c0.6-0.2,1.4-0.4,1.4-0.4c1,0,1.6,1.1,1.6,1.1l-0.4,0.3l0.1,0.1
		c0.3-0.3,0.7,0,0.7,0c0.3,0.2,1.1,0.5,1.1,0.5c-0.4,0.6-1.5,0.3-1.5,0.3c0,0.6-0.6,1-0.6,1c0.4,0.4,2.1,0.7,2.1,0.7
		c0.6-0.9,1.3-0.3,1.3-0.3c0.1,0.1,0.3,0.3,0.3,0.3c-0.4,0.2-0.3,0.7-0.3,0.7c-0.7,0.1-2.8,0.1-2.8,0.1c-2-0.3-3.1-0.8-3.1-0.8
		c-0.2-0.1-0.1-0.3-0.1-0.3v-0.2c0-0.3,0.2-0.2,0.2-0.2c0.7-0.1,1.4-0.9,1.4-0.9c0.2-0.4-0.2-0.4-0.2-0.4
		C141.2,81.1,139.8,80.6,139.8,80.6L139.8,80.6z"/>
	<path class="st9" d="M146.4,82.5c0.5-0.7,1.1-0.2,1.1-0.2c0.2,0.1,0.3,0.4,0.3,0.4c-0.3,0-0.4,0.3-0.4,0.3
		C147.2,82.4,146.4,82.5,146.4,82.5L146.4,82.5z"/>
	<path class="st9" d="M147.3,83.7c-0.1-0.3,0.2-0.4,0.2-0.4c0.1,0.1,0.3,0.4,0.3,0.4C147.6,83.7,147.3,83.7,147.3,83.7L147.3,83.7z"
		/>
	<path class="st9" d="M147.5,83.1c0.3,0.1,0.4,0.5,0.4,0.5h0.3c0.1-0.6-0.2-0.9-0.2-0.9C147.6,82.8,147.5,83.1,147.5,83.1
		L147.5,83.1z"/>
	<path class="st9" d="M147.9,82.1c0.2,0.1,0.1,0.5,0.1,0.5c0.3,0.2,0.3,0.5,0.3,0.5c0.2-0.1,0.5-0.1,0.5-0.1
		C148.7,82,147.9,82.1,147.9,82.1L147.9,82.1z"/>
	<path class="st9" d="M148.5,83.3v0.3h0.4c0-0.2-0.1-0.4-0.1-0.4C148.6,83.1,148.5,83.3,148.5,83.3L148.5,83.3z"/>
	<path class="st9" d="M151,75.3c0.1,0.3,0,0.8,0,0.8c-0.1,0.2-0.4,0.7-0.4,0.7l0.5,0.5h1.3c0.1-0.4,0.9-1.2,0.9-1.2
		C153.8,74,155,73,155,73v-0.2c-0.3-0.1-0.3-0.4-0.3-0.4c0-0.4,0.3-0.6,0.3-0.6c0.1,0.1,0.1-0.1,0.1-0.1c-0.1-0.1-0.2-0.1-0.2-0.1
		l-0.1,0.1l-0.3,0.5c-0.1,0.5-1.1,1.9-1.1,1.9c-0.3,0.3-1.3,1.4-1.3,1.4l-0.1-0.1C151.7,75.6,151,75.3,151,75.3L151,75.3z"/>
	<path class="st9" d="M153.2,81.6l0.3-0.4h0.2c0.1,0.5,0.4,0.9,0.4,0.9v0.7c-0.1-0.3-0.4-0.3-0.4-0.3
		C153.8,81.9,153.2,81.6,153.2,81.6L153.2,81.6z"/>
	<path class="st9" d="M151.5,85h-0.3l-0.6,0.7c0,0.4-0.6,0.6-0.6,0.6c1-0.1,1.1-0.4,1.1-0.4c-0.1,0.3-0.2,0.6-0.2,0.6
		c0.6-0.3,0.5-0.5,0.5-0.5c0.1-0.4,0.1-0.4,0.1-0.4c0-0.2,0.1-0.2,0.1-0.2C151.7,85,151.5,85,151.5,85L151.5,85z"/>
	<path class="st9" d="M152,85.3c0.4,0.1,0.6,0,0.6,0c0.5,0.5,0,1.2,0,1.2c-0.1-0.3-0.1-0.5-0.1-0.5c0.1-0.2-0.1-0.4-0.1-0.4
		c-0.2,0.3-0.1,0.8-0.1,0.8c-0.4-0.2-0.6-0.6-0.6-0.6C151.8,85.5,152,85.3,152,85.3L152,85.3z"/>
	<path class="st9" d="M156.1,81l0.3-0.3c0.1,0.4-0.1,0.7-0.1,0.7C156.3,81.3,156.1,81,156.1,81L156.1,81z"/>
	<path class="st9" d="M155.6,81.5c0.1-0.1,0.3-0.3,0.3-0.3c0.2,0.3,0.1,0.8,0.1,0.8c-0.2-0.1-0.1,0-0.1,0L155.6,81.5L155.6,81.5z"/>
	<path class="st9" d="M155.5,77.8V79c1.1-0.1,1,0.7,1,0.7c0.4,0.1,0.1,0.9,0.1,0.9c0.2,0.4,0,1,0,1c0.6,1.3,2.2,1.8,2.2,1.8
		l-0.1-5.6H155.5L155.5,77.8z"/>
	<path class="st9" d="M155.2,75.5v0.7c-0.6,1.3-0.3,3-0.3,3c-0.2,0-0.3,0.2-0.3,0.2C154.3,76.8,155.2,75.5,155.2,75.5L155.2,75.5z"
		/>
	<polygon class="st9" points="157.6,83 157.6,85.8 158.8,86.7 159.7,85.8 159.7,83.3 159.3,83.4 159.3,85.5 158.8,86.2 158.1,85.7 
		158.1,83.3 	"/>
	<path class="st9" d="M158.7,84.3c0.1,0,0.2-0.1,0.2-0.2s-0.1-0.3-0.2-0.3c-0.1,0-0.1,0.1-0.1,0.3C158.6,84.2,158.6,84.3,158.7,84.3
		L158.7,84.3z"/>
	<path class="st9" d="M159,84.9c0.1,0,0.1-0.1,0.1-0.2c0-0.2-0.1-0.3-0.1-0.3c-0.1,0-0.2,0.1-0.2,0.3
		C158.9,84.8,158.9,84.9,159,84.9L159,84.9z"/>
	<path class="st9" d="M158.8,85.3c0.1,0,0.1-0.1,0.1-0.2s-0.1-0.2-0.1-0.2c-0.1,0-0.2,0.1-0.2,0.2S158.6,85.3,158.8,85.3L158.8,85.3
		z"/>
	<path class="st9" d="M158.5,84.8c0.1,0,0.2-0.1,0.2-0.3c0-0.1-0.1-0.2-0.2-0.2c-0.1,0-0.2,0.1-0.2,0.2
		C158.3,84.7,158.3,84.8,158.5,84.8L158.5,84.8z"/>
	<path class="st9" d="M155.3,81.9c0-0.3,0.1-0.3,0.1-0.3c0.1,0.4,0.4,0.6,0.4,0.6l0,0c0.1,0.3,0.4,0.5,0.4,0.5
		c0,0.3-0.2,0.3-0.2,0.3C155.6,82.5,155.3,81.9,155.3,81.9L155.3,81.9z"/>
	<path class="st9" d="M156,82.1c0.2-0.2,0.1-0.4,0.1-0.4c0.1,0.2,0.2,0.2,0.2,0.2l0.1-0.1c0.1,0.1,0.2,0.3,0.2,0.3
		c-0.3,0-0.4,0.3-0.4,0.3C156.1,82.3,156,82.1,156,82.1L156,82.1z"/>
	<path class="st9" d="M154.7,82.4l0.3,0.4c0-0.1,0.1-0.3,0.1-0.3l0.3-0.3l-0.1-0.3l-0.3,0.3C154.8,82.3,154.7,82.4,154.7,82.4
		L154.7,82.4z"/>
	<path class="st9" d="M154.3,81.8l0.2,0.3c0-0.1,0.1-0.2,0.1-0.2l0.4-0.3l-0.2-0.1L154.3,81.8L154.3,81.8z"/>
	<polygon class="st9" points="153.3,77.7 153.3,78.1 153.4,78 154,78 153.3,78.8 153.8,79.1 154.4,79.1 154.4,78.8 154.3,78.8 
		153.7,78.8 154.4,78 154.4,77.7 154.3,77.7 153.4,77.7 	"/>
	<polygon class="st9" points="153.4,76.7 153.4,77.1 153.4,77 154.3,77.1 154.4,77.3 154.5,76.8 154.3,76.8 153.6,76.7 153.4,76.6 	
		"/>
	<path class="st9" d="M154.1,74.7l0.3,0.2l-0.2,0.1c-0.3,0.3-0.1,0.4-0.1,0.4c0.2,0.1,0.2-0.1,0.2-0.1c0.3-0.4,0.5-0.2,0.5-0.2
		c0.4,0.3,0.1,0.7,0.1,0.7l-0.1,0.1V76l-0.3-0.1l0.1-0.1c0.1-0.1,0.1-0.3,0.1-0.3c-0.1-0.3-0.3,0-0.3,0c-0.4,0.4-0.7,0-0.7,0
		C153.6,75.1,154.1,74.7,154.1,74.7L154.1,74.7z"/>
	<path class="st9" d="M155.1,73.5v0.3c-0.4-0.1-0.4,0.3-0.4,0.3c0.1,0.5,0.5,0.4,0.5,0.4v0.2c-0.5,0.1-0.7-0.4-0.7-0.4
		C154.3,73.6,155.1,73.5,155.1,73.5L155.1,73.5z"/>
	<polygon class="st9" points="155.5,77.6 158.7,77.6 158.7,72.9 155.3,72.8 	"/>
	<path class="st9" d="M155.2,68.2c1.4-1.2,3-1.5,3-1.5v0.7C157.1,67.3,155.2,68.2,155.2,68.2L155.2,68.2z"/>
	<path class="st9" d="M159.2,66.7v0.7c2.3-0.1,3.4,0.9,3.4,0.9C161.2,66.7,159.2,66.7,159.2,66.7L159.2,66.7z"/>
	<polygon class="st9" points="158.4,66.7 158.4,67.4 159,67.4 159,66.7 	"/>
	<path class="st9" d="M154.3,68.6c-0.2-1,0.6-0.6,0.6-0.6L154.3,68.6L154.3,68.6z"/>
	<path class="st9" d="M155.1,67.8c-0.1-1.1,0.6-0.5,0.6-0.5L155.1,67.8L155.1,67.8z"/>
	<path class="st9" d="M156.1,67.1c0-1.1,0.7-0.4,0.7-0.4L156.1,67.1L156.1,67.1z"/>
	<path class="st9" d="M157.1,66.6c0.1-1.4,0.7-0.3,0.7-0.3L157.1,66.6L157.1,66.6z"/>
	<path class="st9" d="M158.2,65.9h1c0.1,0.2-0.1,0.6-0.1,0.6c-0.3,0.1-0.7,0-0.7,0C157.9,66.3,158.2,65.9,158.2,65.9L158.2,65.9z"/>
	<polygon class="st9" points="158.2,64.3 159.2,64.3 158.9,64.7 159.1,64.9 159.3,64.6 159.3,65.5 158.9,65.1 159.1,65.7 
		158.2,65.7 158.6,65.2 158.5,65.1 158.1,65.4 158.1,64.6 158.5,64.9 158.6,64.8 	"/>
	<path class="st9" d="M162.4,67.5L163,68C163.1,66.9,162.4,67.5,162.4,67.5L162.4,67.5z"/>
	<path class="st9" d="M162.1,67.3l-0.7-0.4C162.2,66.2,162.1,67.3,162.1,67.3L162.1,67.3z"/>
	<path class="st9" d="M160.5,66.4l0.7,0.3C161.1,65.5,160.5,66.4,160.5,66.4L160.5,66.4z"/>
	<path class="st9" d="M160.2,66.4c-0.1-0.5-0.4-0.5-0.4-0.5c-0.3-0.1-0.4,0.5-0.4,0.5H160.2L160.2,66.4z"/>
	<path class="st9" d="M155.3,72c3.5-0.7,6.7,0,6.7,0c0.4,0.1,0.3,0.4,0.3,0.4c-0.3,0.1-0.5,0-0.5,0c-2.7-0.6-6.4,0.1-6.4,0.1
		c-0.6,0-0.4-0.2-0.4-0.2C155.1,71.9,155.3,72,155.3,72L155.3,72z"/>
	<polygon class="st9" points="158.9,72.9 158.9,77.6 161.9,77.6 162,72.9 	"/>
	<path class="st9" d="M161.9,77.8h-3.1v5.6c1.7-0.3,2.2-1.3,2.2-1.3c0.1-0.5,0.9-2.7,0.9-2.7L161.9,77.8L161.9,77.8z"/>
	<path class="st9" d="M160,83.3v0.6c0.7,0.4,1.5,0.7,1.5,0.7c0.3-0.1,0.2-0.4,0.2-0.4c-0.2-0.1-0.4-0.2-0.4-0.2
		C160.6,83.8,160,83.3,160,83.3L160,83.3z"/>
	<polygon class="st9" points="161.2,82.2 161.3,82.4 160.7,83.3 160.6,83.1 	"/>
	<path class="st9" d="M161.5,82.5l-0.6,0.9c1,0.6,1.5-0.9,1.5-0.9C161.8,82.7,161.5,82.5,161.5,82.5L161.5,82.5z"/>
	<path class="st9" d="M162.1,75.3v0.9c0.3,0.6,0.4,1.8,0.4,1.8l0.3-0.5C162.8,76.2,162.1,75.3,162.1,75.3L162.1,75.3z"/>
	<path class="st9" d="M160,85.5v0.4c0.3,0.3,1.1,0.4,1.1,0.4c0.2-0.1,0-0.3,0-0.3C160.6,86,160,85.5,160,85.5L160,85.5z"/>
	<path class="st9" d="M161.2,85.3l0.2-0.7c0.6,0,0.4-0.7,0.4-0.7c0.5-0.1,1.1-1.1,1.1-1.1l0.1,0.4l0.2,0.4c0.1,0.2,0.2,0.3,0.1,0.3
		l-0.3,0.3V84l-0.6,0.6l0.2-1.2l-0.6,1.4C161.7,85.1,161.2,85.3,161.2,85.3L161.2,85.3z"/>
	<path class="st9" d="M161.3,85.7c0.5,0.8,2.2,0.8,2.2,0.8c-0.2-0.4-0.7-0.6-0.7-0.6c0.7-0.3,1.4,0.4,1.4,0.4
		c0.4,0.4,0.8,0.4,0.8,0.4c-0.2-0.3-0.4-0.4-0.4-0.4c0.2,0.1,0.4,0,0.4,0c-0.3-0.4-1-0.9-1-0.9c0.8-0.4,1.4,0.5,1.4,0.5
		c0.3,0.5,0.6,0.6,0.6,0.6l-0.2-0.7c0.2,0.7,1.1,0.9,1.1,0.9c0.1-0.1,0-0.3,0-0.3c-0.3,0-0.5-0.4-0.5-0.4v-0.7
		c-0.8-0.1-0.8-0.6-0.8-0.6c0.1-0.7,0.7-0.7,0.7-0.7l-0.1-0.8c0.5-0.4,1.4-0.2,1.4-0.2c-0.1-0.5-0.5-0.4-0.5-0.4
		c0-0.4-0.5-0.4-0.5-0.4v0.1l-1.3,1c0.2,1-0.3,1.4-0.3,1.4c-0.9,0.6-1.6-0.2-1.6-0.2l-0.5,0.3c0.5,0,0.8,0.5,0.8,0.5l-0.1,0.1
		c-0.3-0.3-0.8-0.4-0.8-0.4l-0.4,0.2l-0.2,0.2L161.3,85.7L161.3,85.7z"/>
	<path class="st9" d="M164.3,81.9c0.4-0.6,0.6-1.6,0.6-1.6l0.1,0.2l-0.2,0.7l0.1,0.1l0.3-0.6l0.2,0.2l-0.3,0.5l0.2,0.2l0.3-0.4
		l0.2,0.2l-0.4,0.4l0.2,0.3l0.3-0.5l0.3,0.2l-0.4,0.4l0.2,0.1l0.4-0.4l0.1,0.1l-1.1,0.9C165,82.2,164.3,81.9,164.3,81.9L164.3,81.9z
		"/>
	<path class="st9" d="M168,82.8c0.9-0.2,0.1-0.7,0.1-0.7c-0.8-0.3-0.9-0.1-0.9-0.1c0.3,0.1,0.3,0.3,0.3,0.3
		C167.9,82.3,168,82.8,168,82.8L168,82.8z"/>
	<path class="st9" d="M168.1,83.7l0.3-0.8c-0.5,0.2-0.8,0.1-0.8,0.1c-0.6-0.1-0.8,0.1-0.8,0.1c-0.3,0.2-0.1,0.2-0.1,0.2
		C167.1,83.7,168.1,83.7,168.1,83.7L168.1,83.7z"/>
	<polygon class="st9" points="169.2,83.6 169.3,83.8 170.2,83.5 169.7,83.9 170.7,84 170.2,83.3 	"/>
	<path class="st9" d="M166.5,67.3c-0.1-0.7-0.4-1-0.4-1c-0.4-0.3-0.4,0-0.4,0c0,0.3,0.3,0.4,0.3,0.4L166.5,67.3L166.5,67.3z"/>
	<path class="st9" d="M167.4,67.8c-0.1-0.4-0.1-0.4-0.1-0.4c-0.1-0.3-0.3-0.4-0.3-0.4l-0.5-0.3c0.1,0.3,0.2,0.7,0.2,0.7L167.4,67.8
		L167.4,67.8z"/>
	<path class="st9" d="M167.4,67.2c0.2,0.4,0.2,0.7,0.2,0.7l0.6,0.6c0-0.6-0.3-1-0.3-1L167.4,67.2L167.4,67.2L167.4,67.2z"/>
	<path class="st9" d="M166.2,71.3c-0.3,0.1-0.4,0.1-0.4,0.1c0,0.4,0.7,0.4,0.7,0.4c0.3,0,0.5-0.3,0.5-0.3v-0.1
		c-0.2,0.1-0.5,0.2-0.5,0.2L166.2,71.3L166.2,71.3z"/>
	<path class="st9" d="M167.1,73.9l0.1-0.3c0.7-0.2,0.2-0.7,0.2-0.7c0.3-0.1,0.3,0,0.3,0c0.3-0.2,0.4,0.2,0.4,0.2
		c0.3-0.2,0.4-0.1,0.4-0.1c-0.6,0.5,0.1,0.7,0.1,0.7c0.3,0,0.4-0.3,0.4-0.3c-0.1-0.1-0.2-0.3-0.2-0.3c0.2,0.1,0.3,0.2,0.3,0.2
		c0-0.2,0.2-0.2,0.2-0.2c0.1,0.2,0.1,0.3,0.1,0.3c0.1-0.1,0.3,0,0.3,0c-0.3,0.4,0.1,0.7,0.1,0.7c0.5,0.3,0.4-0.6,0.4-0.6
		c0.4,0,0.3,0.3,0.3,0.3l0.2-0.2c0.1,0.2,0.1,0.4,0.1,0.4c0.1-0.2,0.4,0,0.4,0c-0.6,0.4-0.2,0.7-0.2,0.7c0.2,0.1,0.3,0,0.3,0v-0.3
		l0.5,0.1l-0.5,0.6C168.9,73.7,167.1,73.9,167.1,73.9L167.1,73.9z"/>
	<path class="st9" d="M168.2,67.7l0.5,0.3c0,0.3-0.3,0.6-0.3,0.6C168.5,68.3,168.2,67.7,168.2,67.7L168.2,67.7z"/>
	<path class="st9" d="M170.5,68c1-0.3,1.7,1.1,1.7,1.1l-0.7-0.3C171.1,68.4,170.5,68,170.5,68L170.5,68z"/>
	<path class="st9" d="M171.5,69c0.2,0.3,0.3,0.8,0.3,0.8c0.3,0.3,1,0.7,1,0.7C172.6,69.3,171.5,69,171.5,69L171.5,69z"/>
	<path class="st9" d="M172,70.2c1.3,0.5,0.9,1.8,0.9,1.8c-0.2-0.5-0.5-0.6-0.5-0.6C172,71,172,70.2,172,70.2L172,70.2z"/>
	<path class="st9" d="M172.2,71.6c0,0.3-0.1,0.8-0.1,0.8c0.2,0.3,0.3,0.9,0.3,0.9c0.2-0.1,0.3-1,0.3-1
		C172.7,71.9,172.2,71.6,172.2,71.6L172.2,71.6z"/>
	<path class="st9" d="M172,72.8c-0.1,0.4-0.5,1.2-0.5,1.2l0.2,0.2l0.2,0.1C172.6,73.5,172,72.8,172,72.8L172,72.8z"/>
	<path class="st9" d="M179.6,84.8l-0.3-1.3c-0.3-0.4-0.7-0.1-0.7-0.1c-0.3,0.3-0.7,0.1-0.7,0.1c-0.4-0.1-0.1-0.4-0.1-0.4
		c0.6-0.4,1.2-0.5,1.2-0.5c0.4,0.2,1.3,0.1,1.3,0.1c0.7-0.1,0.6,0.5,0.6,0.5c0,0.6-0.1,1.5-0.1,1.5
		C180.2,84.7,179.6,84.8,179.6,84.8L179.6,84.8z"/>
	<path class="st9" d="M180.8,85.1l0.2,0.2l-0.6,1l-0.3-0.1C180.6,85.8,180.8,85.1,180.8,85.1L180.8,85.1z"/>
	<path class="st9" d="M181.1,85.3l-0.4,1c0.8,0.1,1.4-0.4,1.4-0.4l-0.1-0.6C181.6,85.5,181.1,85.3,181.1,85.3L181.1,85.3z"/>
	<path class="st9" d="M182.8,84.9c0.2,0,0.6,0.2,0.6,0.2c0.1-0.7-0.2-1.5-0.2-1.5c0.6,0.2,0.6,0,0.6,0c0.2-0.5-0.4-0.7-0.4-0.7
		c-1.1-0.3-1.4-0.3-1.4-0.3c0.1,0.3,0,0.5,0,0.5c0,0.1,0,0.4,0,0.4C183,83.9,182.8,84.9,182.8,84.9L182.8,84.9z"/>
	<polygon class="st9" points="162.1,73.5 162.1,73.8 162.5,73.5 162.1,74.4 162.1,74.9 162.7,73.6 162.5,73.3 	"/>
	<polygon class="st9" points="162.3,75.1 162.4,75.1 163.2,74.5 163.3,74.3 163.4,74.7 163.3,74.7 162.6,75.3 162.7,75.6 
		162.9,75.8 162.7,75.9 	"/>
	<polygon class="st9" points="162.9,76.7 163,77.1 163.2,77 163.5,76.9 163.8,77.1 164.1,77.1 163.7,76.8 164,76.4 163.9,76 
		163.8,76.2 163.5,76.6 163,76.7 	"/>
	<path class="st9" d="M163.5,79.3c-0.2,0-0.1,0.1-0.1,0.1c0.4,0.5,0.6,0.1,0.6,0.1c0.1-0.2,0.1-0.4,0.1-0.4H164
		c0,0.4-0.2,0.3-0.2,0.3C163.6,79.5,163.5,79.3,163.5,79.3L163.5,79.3z"/>
	<polygon class="st9" points="163.1,80 163,80.5 163.2,80.8 163.3,80.3 163.6,80.5 163.4,80.9 163.3,80.9 163.6,81 163.8,80.5 
		164,80.3 163.8,80.3 163.1,79.9 	"/>
	<path class="st9" d="M155.8,84.1c-0.1,0.3-0.3,0.3-0.3,0.3l-0.4-0.5c-0.3-0.4,0-0.5,0-0.5l0.5-0.7c0.2,0.1,0.3,0.3,0.3,0.3
		l-0.4,0.5c-0.1,0.3,0.1,0.3,0.1,0.3L155.8,84.1L155.8,84.1z"/>
	<path class="st9" d="M156.4,82.5c0.1,0.6-0.5,0.5-0.5,0.5c-0.2,0.4,0.1,0.4,0.1,0.4c0.5,0,0.7-0.5,0.7-0.5
		C156.7,82.6,156.4,82.5,156.4,82.5L156.4,82.5z"/>
	<path class="st9" d="M167.3,72.3l-0.4-0.4c0,0,0.4-0.3,0.3-0.7c0,0,0.3,0-0.3,0l-0.2,0.1c0,0-0.2-0.1-0.2-0.2l-0.1-0.4l0.3-0.4h0.3
		c0.2-0.3,0.8-0.8,1.3-1.2l0.1,0.2c-0.2,0.4,0,0.5,0,0.5c0.3,0.2,0.4-0.2,0.4-0.2c0.3,0.1,0.2,0,0.2,0c-0.3-0.1-0.6-0.5-0.7-0.5
		c0.4-0.3,0.7-0.6,0.7-0.6c0.2-0.4,0.5-0.6,0.5-0.6c-0.2-0.2-0.3-0.8-0.3-0.8c0.9,0,1.1,1,1.1,1c2.8,2.3,1.1,5.8,1.1,5.8
		c-0.9-0.7-2.8-1.1-2.8-1.1c0.3-0.5,0.9-0.8,0.9-0.8c1.2,0,1-1.4,1-1.4c-0.3-0.5-0.2,0.3-0.2,0.3c-0.5,1.7-1.8,0.2-1.8,0.2
		c-0.1-0.1,0,0.3,0,0.3c0.1,0.2,0.1,0.1,0.1,0.1l0.1,0.1l-0.9,0.4c-0.1,0.2-0.4,0.6-0.4,0.6h-0.1V72.3z"/>
	<path class="st9" d="M150.1,69.4c-1.6,0.1-3.4,1.5-3.4,1.5c-0.2,0.1-0.3,0.1-0.3,0.1c-0.4,0.7,0.4,1,0.4,1c-0.2,1,0.3,1.8,0.3,1.8
		c0.3,0.4,0.4,1.4,0.4,1.4c0.3-0.2,0.3-0.6,0.3-0.6c0.3,1.3,1.3,1.5,1.3,1.5c0.4,0.1,0.6,0.4,0.6,0.4c0.1-0.4,0.1-0.7,0.1-0.7
		c0.1,0.5,0.6,0.7,0.6,0.7c0.1-0.4,0.2-0.9,0.2-0.9c0.3-0.7,0.1-1.4,0.1-1.4c0.1,0.3,0.5,0.3,0.5,0.3c-0.2-0.7,0-1.2,0-1.2
		c0.1-0.7-0.1-1.1-0.1-1.1l-0.1-0.3c-0.2,0.5-0.1,1.2-0.1,1.2c-0.2,0-0.4-0.1-0.4-0.1c0.1,0.7-0.3,1.6-0.3,1.6
		c-0.3,0.4-0.3,0.7-0.3,0.7c-0.3-0.4-1.4-0.7-1.4-0.7c-0.2-0.3-0.4-0.7-0.4-0.7c-0.1,0.3-0.3,0.2-0.3,0.2c-0.1-0.4-0.4-0.8-0.4-0.8
		c-0.3-0.4-0.3-0.9-0.3-0.9c0.3,0.6,0.4,0.8,0.4,0.8c0.3,0.1,0.3,0.7,0.3,0.7c0.2-0.1,0.3-0.4,0.3-0.4c0.5,0.8,1.2,1,1.2,1
		c0.3,0.2,0.6,0.4,0.6,0.4c0-0.6,0.3-0.9,0.3-0.9c0.4-0.7,0.2-1.5,0.2-1.5c0.2,0.4,0.5,0.4,0.5,0.4c-0.1-0.3,0-0.6,0-0.6
		c0.1-0.2,0.1-0.6,0.1-0.8l-0.1-0.4c-0.2-0.5-0.3-0.8-0.3-0.8C150.8,69.7,150.1,69.4,150.1,69.4L150.1,69.4z M148.6,72.7
		c0.3,0.4,0.7,0.6,0.7,0.6c0.2-0.5,0.1-0.8,0.1-0.8c-0.3,0-0.5-0.1-0.5-0.1C148.9,72.7,148.6,72.7,148.6,72.7L148.6,72.7z M147.2,71
		c0.5,0.2,0.7-0.1,0.7-0.1c0.6-0.2,0.6,0.4,0.6,0.4c0,0.3,0.1,0.4,0.1,0.4c0.2,0,0.4,0,0.6-0.2c0.1-0.2-0.1-0.4-0.1-0.4
		c-0.1-0.3-0.2-0.4-0.2-0.4c0-0.6,0.4-0.6,0.4-0.6c0.3,0,0.4-0.2,0.4-0.2c0,0.6-0.4,0.7-0.4,0.7c-0.3,0.2-0.2,0.4-0.2,0.4
		c0.3,0.4,0,0.5,0,0.5c-0.1,0.1-0.2,0.2-0.3,0.2c0.1,0.3,0.4,0.3,0.4,0.3c0.4-0.2,0.4-0.7,0.4-0.7c0.2,0.5,0,0.7,0,0.7
		c0.2,0.3-0.1,0.5-0.1,0.5c0,0.6-0.3,0.9-0.3,0.9c-1.3-0.7-1.3-1.6-1.3-1.6c0.4,0.7,0.8,0.4,0.8,0.4c0.1-0.1,0.1-0.3,0-0.4
		c-0.2,0-0.3,0-0.3,0c-0.2-0.3-0.2-0.5-0.2-0.5c-0.2-0.4-0.3-0.1-0.3-0.1C147.4,71.7,147.2,71,147.2,71L147.2,71z"/>
	<path class="st9" d="M138.6,83.7c1,0.6,4.8,0.6,4.8,0.6c3.7,0,5.6-0.5,5.6-0.5c0.4,0,1.2-0.3,1.2-0.3c0.1,0,0.1,0.3,0.1,0.3
		c-0.2,0.9,0,1.7,0,1.7c0,0.6-0.6,0.6-0.6,0.6c-5.4,0.7-9.6,0.4-9.6,0.4c-1.3-0.2-1.3-0.9-1.3-0.9c0.3-1-0.1-1.6-0.1-1.6
		C138.5,83.8,138.6,83.7,138.6,83.7L138.6,83.7z M139.8,85.9l0.1-0.1v-1.1l-0.1-0.2c0.8,0,1.1,0.3,1.1,0.3c0.6,0.9-0.4,1.1-0.4,1.1
		C140.1,86.1,139.8,85.9,139.8,85.9L139.8,85.9z M141.7,84.7h0.6c-0.2,0.1-0.1,0.3-0.1,0.3v1c0.1,0.1,0.2,0.2,0.2,0.2h-0.6
		c0.1-0.1,0.1-0.2,0.1-0.2v-1C141.8,84.8,141.7,84.7,141.7,84.7L141.7,84.7z M140.3,84.7v1c0.4,0,0.5-0.3,0.5-0.3
		c0.1-0.2-0.1-0.4-0.1-0.4C140.5,84.7,140.3,84.7,140.3,84.7L140.3,84.7z M142.8,84.8h1.1v0.3c-0.1-0.1-0.3-0.1-0.3-0.1h-0.2v0.4
		h0.1l0.3-0.1v0.3h-0.2h-0.1V86c0.2,0,0.3,0,0.3,0c0.1,0,0.3-0.1,0.3-0.1v0.3h-0.8h-0.2l0,0c0.1,0,0.1-0.1,0.1-0.1V85
		C143,84.9,142.8,84.8,142.8,84.8L142.8,84.8z M144.5,84.8h0.6L145,85v0.7c0,0.3,0.3,0.3,0.3,0.3c0.3,0,0.2-0.4,0.2-0.4v-0.7
		l-0.1-0.1h0.4v0.1v0.8c0,0.5-0.6,0.5-0.6,0.5c-0.6,0-0.6-0.6-0.6-0.6v-0.7C144.6,84.8,144.5,84.8,144.5,84.8L144.5,84.8z
		 M147.2,84.6l0.9-0.1l0.1,0.3c-0.1,0-0.3,0-0.3,0h-0.2v0.4h0.2l0.1-0.1v0.3c-0.1-0.1-0.1-0.1-0.1-0.1h-0.2v0.4h0.3
		c0.1,0,0.2-0.1,0.2-0.1v0.3l-0.8,0.1l0.1-0.1v-1.2C147.3,84.7,147.2,84.6,147.2,84.6L147.2,84.6z M148.8,84.5v0.3
		c0.1-0.1,0.3-0.1,0.3-0.1v1.1l-0.1,0.1l0.4-0.1h-0.1v-1.1c0.2-0.1,0.3,0,0.3,0v-0.3l0,0L148.8,84.5L148.8,84.5L148.8,84.5
		L148.8,84.5z"/>
	<path class="st9" d="M150.9,83.3c-0.3-0.5-0.1-0.8-0.1-0.8c0.2-0.7,0.8-0.6,0.8-0.6c0.4,0.2,0.3-0.1,0.3-0.1
		c0.4-0.5,0.8-0.2,0.8-0.2c0.2,0.3,0.5,0.3,0.5,0.3c0.3,0.3,0.1,0.5,0.1,0.5c0,0.2,0.1,0.3,0.1,0.3c0.3,0.1,0.3,0.4,0.3,0.4
		c0.1,0.4-0.2,1.1-0.2,1.1c-0.2,0.2-0.5,0-0.5,0c-0.2,0-0.1,0.1-0.1,0.1c0.2,0.3,0,0.4,0,0.4c-0.3,0.3-0.7,0.3-0.7,0.3
		c-0.6,0-0.6-0.3-0.6-0.3c-0.1-0.3-0.4-0.3-0.4-0.3c-0.5-0.1-0.5-0.6-0.5-0.6c0-0.3,0.1-0.4,0.1-0.4
		C151.1,83.5,150.9,83.3,150.9,83.3L150.9,83.3z M151.9,83.6c0.2,0.6-0.2,0.8-0.2,0.8c-0.3,0-0.3-0.2-0.3-0.2c0-0.2-0.2-0.3-0.2-0.3
		c-0.1-0.4,0.1-0.4,0.1-0.4C151.7,83.4,151.9,83.6,151.9,83.6L151.9,83.6z M152.6,83.4c0.1,0.4,0.6,0.7,0.6,0.7
		c0.3,0,0.1-0.4,0.1-0.4c-0.1-0.2-0.1-0.3-0.1-0.3c0.4-0.1,0.1-0.4,0.1-0.4C152.7,82.8,152.6,83.4,152.6,83.4L152.6,83.4z
		 M152.1,82.8c0-0.7-0.4-0.7-0.4-0.7c-0.2,0-0.2,0.3-0.2,0.3c0.1,0.4-0.1,0.4-0.1,0.4c-0.3,0.1-0.1,0.4-0.1,0.4
		c0.1,0.1,0.2,0.1,0.2,0.1c0.3,0,0.6-0.2,0.6-0.2C152.2,83.1,152.1,82.8,152.1,82.8L152.1,82.8z M152.6,82c0.1,0.2,0.3,0.2,0.3,0.2
		c0.4,0,0.1,0.4,0.1,0.4c-0.2,0.3-0.5,0.3-0.5,0.3c-0.4-0.5-0.4-0.7-0.4-0.7C152.1,81.6,152.6,82,152.6,82L152.6,82z M152.3,83.8
		c0.6,0.1,0.5,0.7,0.5,0.7c-0.1,0.3-0.3,0.1-0.3,0.1c-0.2-0.2-0.3,0-0.3,0c0,0.3-0.3,0.1-0.3,0.1C151.8,83.9,152.3,83.8,152.3,83.8
		L152.3,83.8z"/>
	<path class="st9" d="M152.8,85.3c0.6-0.1,0.6-0.7,0.6-0.7s0.1,0,0.1-0.1c0.4,0.3,0.5,0.6,0.5,0.6c0.2,0.1,0.4,0.4,0.4,0.4
		c0-0.5-0.3-0.6-0.3-0.6c-0.1-0.3-0.3-0.5-0.4-0.6c0.3-0.4,0.3-0.9,0.3-0.9c0.4-0.2,0.8,0.4,0.8,0.4c-0.1,0.1-0.3,0-0.3,0
		c0.6,0.3,0.5,1.2,0.5,1.2c-0.3,0-0.4-0.1-0.4-0.1c0.4,0.5,0,1.5,0,1.5c-0.4-0.2-0.5-0.7-0.5-0.7c0.1,0.4-0.1,0.5-0.1,0.5
		c-0.4-0.1-0.5-0.6-0.5-0.6c0,0.4-0.3,0.3-0.3,0.3c-0.1-0.1-0.1-0.3-0.1-0.3C152.9,85.6,152.8,85.3,152.8,85.3L152.8,85.3z"/>
	<path class="st9" d="M157.4,84.9c-0.2,0-0.3-0.1-0.4-0.1c-0.1,0.3-0.3,0.9-0.6,1.2c0,0,0.3-0.7,0.5-1.2c-0.5-0.2-0.9-0.6-0.9-0.6
		c0,0.6-0.6,0.3-0.6,0.3c-0.3,0.6,0.3,0.7,0.3,0.7c0.4,0,0.7-0.3,0.7-0.3c0.5-0.1,0.1,0.3,0.1,0.3c-0.2,0.2-0.6,0.3-0.6,0.3
		c-0.6,0.2-0.3,0.6-0.3,0.6c0.3,0.4,0.6,0.3,0.6,0.3c0.3,0,0.3,0.2,0.3,0.2c0.2,0.4,0.5,0.2,0.5,0.2c0.3-0.4,0.1-0.7,0.1-0.7
		c-0.2-0.5-0.1-0.7-0.1-0.7c-0.1-0.7,0.2-0.2,0.2-0.2c0.1,0.1,0.1,0.4,0.1,0.4c0.1,0.3,0.1,0.1,0.1,0.1L157.4,84.9L157.4,84.9z"/>
	<path class="st9" d="M151.7,81.7l0.2-0.4c0-0.4-0.5-0.7-0.5-0.7c-0.1,0.2,0,0.3,0,0.3c-0.2-0.3-0.9-0.6-0.9-0.6
		c-0.1,0.2,0,0.6,0,0.6c-0.3-0.6-1-0.7-1-0.7c0,0.3,0.1,0.5,0.1,0.5c-0.3-0.3-1-0.2-1-0.2c0.1,0.7,0.7,1.1,0.7,1.1l-0.1,0.2
		c-0.4-0.3-0.5-0.1-0.5-0.1v0.1c0.2,0.4,1,0.7,1,0.7c-0.2,0.1-0.3,0.3-0.3,0.3c0.3,0.6,1.2,0.6,1.2,0.6c-0.2-0.5-0.1-1,0-1.2
		c-0.1-0.1-0.6-0.4-0.8-0.5c0,0-0.1-0.2-0.4-0.4l-0.5-0.4c0,0,0.4,0.1,0.7,0.4c0,0,0.7,0.6,1.1,0.8
		C151.1,81.6,151.7,81.7,151.7,81.7L151.7,81.7z"/>
	<path class="st9" d="M166.7,83.6c0.2,0.9,0.1,2.1,0.1,2.1c4.1,1.6,11.2,0.6,11.2,0.6c1.2-0.1,1.2-0.3,1.2-0.3
		c0.4,0,0.4-0.7,0.4-0.7c-0.3-0.3-0.4-1.7-0.4-1.7c-1,0.6-6.4,0.7-6.4,0.7C168.4,84.5,166.7,83.6,166.7,83.6L166.7,83.6z
		 M167.2,84.2l0.4,0.1l0.2,0.8l0.4-0.6h0.4v0.1v1.2l0.1,0.1l-0.5-0.1l0.1-0.1v-0.6l-0.5,0.6l-0.3-0.8v0.6v0.1l-0.3-0.1v-0.1
		L167.2,84.2L167.2,84.2L167.2,84.2z M169.2,84.7c-0.6,0.6,0,1.3,0,1.3c0.4,0.3,0.9,0,0.9,0c0.6-0.8,0-1.3,0-1.3
		C169.5,84.4,169.2,84.7,169.2,84.7L169.2,84.7z M169.6,84.8c-0.6,0.3-0.2,1-0.2,1c0.1,0.3,0.4,0.1,0.4,0.1c0.3-0.3,0.1-0.8,0.1-0.8
		C169.8,84.7,169.6,84.8,169.6,84.8L169.6,84.8z M170.6,84.7h0.3l0.5,0.7v-0.5v-0.1h0.5l-0.1,0.1v1.3v0.1h-0.3l-0.5-0.8V86v0.1h-0.4
		v-0.2v-1.1V84.7L170.6,84.7z M172.9,84.8h0.5c0.6,0,0.7,0.7,0.7,0.7c0,0.8-0.8,0.8-0.8,0.8h-0.4l0.1-0.1v-1.3L172.9,84.8
		L172.9,84.8z M173.3,85v1.2c0.5-0.2,0.4-0.7,0.4-0.7C173.6,85,173.3,85,173.3,85L173.3,85z M174.3,84.8h0.2c0.3-0.1,0.7,0,0.7,0
		c0.4,0.4,0,0.8,0,0.8l0.3,0.5c0.1,0,0.1,0.1,0.1,0.1c-0.2,0.1-0.3,0-0.3,0c-0.3-0.2-0.4-0.5-0.4-0.5h-0.2v0.6v0.1h-0.4v-0.1V85
		L174.3,84.8L174.3,84.8z M174.8,85.4v-0.6c0.1-0.1,0.3,0,0.3,0c0.2,0.3,0,0.5,0,0.5C174.9,85.5,174.8,85.4,174.8,85.4L174.8,85.4z
		 M176.4,84.5c0.7,0,0.7,0.9,0.7,0.9c-0.1,0.7-0.7,0.7-0.7,0.7c-0.6-0.1-0.7-0.9-0.7-0.9C175.8,84.4,176.4,84.5,176.4,84.5
		L176.4,84.5z M176.4,84.7c0.4,0,0.3,0.6,0.3,0.6c0,0.5-0.3,0.6-0.3,0.6c-0.2,0-0.3-0.2-0.3-0.2c-0.2-0.7,0.1-0.9,0.1-0.9
		C176.2,84.7,176.4,84.7,176.4,84.7L176.4,84.7z M177.3,84.5h0.5l-0.1,0.1v1.3l0.1,0.1h-0.4v-0.1v-1.3L177.3,84.5L177.3,84.5z
		 M178.2,84.4v0.4l0.1-0.1h0.2v1.2V86l0.4-0.1v-0.1v-1.2h0.3v-0.3h-0.1l-0.7,0.1H178.2L178.2,84.4z"/>
	<path class="st9" d="M163.1,82.7c0,0.1,0,0.2,0,0.3l0,0c0.1-0.3,0.1-0.5,0.1-0.5l0.1-0.1c0.1,0.1,0,0.3,0,0.5c0.1,0,0.2,0,0.3,0
		c0-0.2,0.1-0.3,0.1-0.5l-0.5-0.1C163,82.5,163.1,82.7,163.1,82.7L163.1,82.7z M163.2,83.1c0.1,0.3,0.2,0.5,0.4,0.7
		c0.2-0.1,0.1-0.6,0.1-0.8C163.6,83,163.4,83,163.2,83.1L163.2,83.1z M163.7,83.9c0.2,0.2,0.4,0.3,0.5,0.3c0.1-0.2,0.1-0.5,0.1-0.6
		c-0.2,0-0.4,0.1-0.5,0.1C163.7,83.8,163.7,83.9,163.7,83.9L163.7,83.9z M164.3,84.3c0.1,0,0.2,0.1,0.2,0.1c0.1,0,0.2,0,0.3,0v-0.3
		c-0.1,0-0.3,0.1-0.4,0.2C164.3,84.2,164.3,84.2,164.3,84.3L164.3,84.3z M164.9,84.3c0.3-0.1,0.3-0.3,0.4-0.4c-0.2-0.1-0.3,0-0.4,0
		V84.3L164.9,84.3z M165.3,83.7c0-0.5-0.2-0.9-0.4-1.1c0,0.1,0.1,0.4,0.1,0.7l0.2-0.1v0.1h-0.3c0,0.1,0,0.2,0,0.4
		C165.1,83.7,165.2,83.7,165.3,83.7L165.3,83.7z M164.8,82.5c-0.1-0.1-0.3-0.2-0.5-0.3c0,0.1,0.1,0.2,0.1,0.5
		C164.5,82.6,164.6,82.5,164.8,82.5L164.8,82.5z M164.1,82.1c-0.3-0.1-0.5-0.1-0.5-0.1c-0.2,0-0.3,0.1-0.4,0.1h0.5H164.1L164.1,82.1
		z M163.8,82.3c0,0.1,0.1,0.3,0,0.4c0.3-0.1,0.5-0.1,0.5,0c0-0.1,0-0.3-0.1-0.5L163.8,82.3L163.8,82.3z M164.5,82.9
		c0.1,0.2,0,0.4,0,0.5c0.2-0.1,0.3-0.1,0.4-0.1c0-0.1,0-0.4-0.1-0.6C164.7,82.7,164.6,82.7,164.5,82.9L164.5,82.9z M164.4,83.5
		c0,0.2,0,0.4,0,0.5c0.2-0.2,0.4-0.2,0.4-0.2c0.1-0.1,0.1-0.3,0.1-0.4C164.6,83.4,164.4,83.5,164.4,83.5L164.4,83.5z M164.3,82.9
		c-0.3-0.1-0.5,0-0.6,0c0,0.2,0,0.5,0,0.6c0.2-0.1,0.4-0.1,0.5-0.1C164.4,83.2,164.4,83,164.3,82.9L164.3,82.9z"/>
	<path class="st9" d="M155.2,71.7l-0.6-2l0.3-0.9l0.4,1.4l-0.3-0.1c0.3,1.1,1.2,0.6,1.2,0.6c0.4-0.4,0-0.6,0-0.6
		c-0.5-0.3-0.6,0-0.6,0c-0.3-1.3,0.5-0.8,0.5-0.8c0-0.8,0.3-0.9,0.3-0.9c0.4,0.1,0.4,0.9,0.4,0.9c0.5-0.8,0.8,0,0.8,0
		c0,0.1,0,0.3,0,0.3c-0.6-0.2-0.7,0.4-0.7,0.4c-0.1,0.4,0.7,0.5,0.7,0.5c0.9-0.3,0.9-1.2,0.9-1.2c-0.3,0-0.7,0.4-0.7,0.4V68
		c0.2,0.4,0.8,0.6,0.8,0.6c-0.1-0.7-0.5-1.1-0.5-1.1h1.5c-0.5,0.5-0.5,1.2-0.5,1.2c0.4-0.1,0.7-0.5,0.7-0.5v1.4
		c-0.3-0.5-0.7-0.3-0.7-0.3c-0.1,1.1,0.8,1.1,0.8,1.1c0.7,0,0.7-0.6,0.7-0.6c-0.1-0.7-0.6-0.3-0.6-0.3c-0.2-1.1,0.6-0.6,0.6-0.6
		c-0.3-0.7,0.2-1,0.2-1c0.6,0.4,0.3,1,0.3,1c0.8-0.4,0.7,0.6,0.7,0.6c-0.8-0.4-0.7,0.5-0.7,0.5c0.4,0.9,1.1,0.2,1.1,0.2
		c0.1-0.2,0.2-0.4,0.2-0.4l-0.3,0.1l0.3-1.1l0.3,0.6l0.2-0.6l0.2,0.2l-1.1,2.7C158.9,71.1,155.2,71.7,155.2,71.7L155.2,71.7z
		 M160.7,71.2c-0.2,0-0.4-0.1-0.3-0.2c0-0.1,0.1-0.1,0.4-0.1c0.2,0,0.4,0.1,0.3,0.2C161.1,71.2,160.9,71.3,160.7,71.2L160.7,71.2z
		 M156.7,71.3c0.2,0,0.3-0.1,0.3-0.2s-0.2-0.1-0.4-0.1s-0.4,0.1-0.4,0.2C156.3,71.2,156.5,71.3,156.7,71.3L156.7,71.3z M158.8,70.5
		l0.5,0.4l-0.5,0.3l-0.5-0.3L158.8,70.5L158.8,70.5z"/>
	<path class="st9" d="M165.7,76.3c0-0.5,0.3-1.1,0.3-1.1l-0.4-0.5l-0.1,0.3c0.1,0.1,0.1,0.2,0.1,0.3c0,0.2-0.1,0.3-0.2,0.4v0.1
		L165.7,76.3L165.7,76.3z M165.5,74.6l-1.1-1.1c-0.7-1.1-1.3-0.6-1.3-0.6l-0.5,0.2c0.4,0.3,0.6,0.7,0.6,0.7c0.4-0.1,0.5,0.1,0.5,0.1
		l1.1,1.4l0,0c0-0.2,0.1-0.4,0.3-0.4h0.1L165.5,74.6L165.5,74.6z"/>
	<path class="st9" d="M164,74.5c-0.3-0.3-0.4-0.5-0.6-0.4c0,0,0.3,0.6,0.6,1.4c0.2,0.6,0.3,1.2,0.3,1.8h0.6h0.1l-0.1-0.3
		c-0.2,0-0.3-0.2-0.3-0.4c0-0.3,0.1-0.4,0.3-0.4l0,0l0.1-0.3c-0.1-0.1-0.2-0.2-0.3-0.3c-0.1-0.2-0.3-0.4-0.5-0.6
		C164.2,74.8,164.1,74.6,164,74.5L164,74.5z M165.1,77.3l0.6,0.1c0,0-0.2-0.3-0.1-0.9c0,0-0.2-0.2-0.4-0.5v0.2
		c0.1,0.1,0.1,0.2,0.1,0.3c0,0.2-0.1,0.3-0.3,0.4L165.1,77.3L165.1,77.3z"/>
	<path class="st9" d="M161.3,82c0.3,0.4,1,0.3,1,0.3c0.1-0.1,0.1-0.5,0.1-0.5c-0.1-0.3,0-0.4,0-0.4c0.2,0,0.2,0.3,0.2,0.3
		c0,0.1-0.1,0.4-0.1,0.4c0.8-0.5,0.1-1.5,0.1-1.5c0.2-1,0.4-1.3,0.4-1.3c0.9-0.7,1.3-0.5,1.3-0.5c0.7,0,2,0.4,2,0.4
		c0.5,0.1,2.2,0.4,2.2,0.4c0-0.2,0.1-0.3,0.1-0.3c0.5-0.3,0.8-1.9,0.8-1.9c0-0.3,0.1-0.1,0.1-0.1c0.1,0.3,0,0.4,0,0.4
		c0.1,0.5-0.4,1.5-0.4,1.5c0.9,0.5,2.4,0.4,2.4,0.4c1.1,0,1.9-0.6,1.9-0.6c1-0.4,2.2-0.3,2.2-0.3v-0.2c-0.9-0.4-0.3-0.9-0.3-0.9
		l-0.4-0.5c-1-0.1-4.1-1.7-4.1-1.7c-2.7-1.5-4.1-1.2-4.1-1.2c-1.1,1.2-1,3.2-1,3.2l0.7,0.1c0-1.4,0.8-2.1,0.8-2.1
		c0.3-0.1,0.1,0.2,0.1,0.2c-0.9,1.4-0.6,2.3-0.6,2.3c-0.4-0.2-2.8-0.3-2.8-0.3c-0.7-0.2-1.2,0.2-1.2,0.2c-0.4,0.4-0.6,1-0.6,1
		l-0.5,1.7C161.4,81.5,161.3,82,161.3,82L161.3,82z M171.6,77.7c-0.1,0.8-0.6,1.6-0.6,1.6c0.1,0.3,0.4-0.1,0.4-0.1
		c0.3-0.6,0.4-1.4,0.4-1.4C171.7,77.2,171.6,77.7,171.6,77.7L171.6,77.7z M170.4,77.2c-0.2,1.1-0.7,1.9-0.7,1.9
		c-0.1,0.3,0.2,0.1,0.2,0.1c0.5-0.7,0.6-1.9,0.6-1.9C170.5,76.9,170.4,77.2,170.4,77.2L170.4,77.2z M171,77.5c0,0.8-0.7,1.6-0.7,1.6
		c-0.1,0.3,0.2,0.1,0.2,0.1c0.6-0.5,0.7-1.8,0.7-1.8C171.1,77.1,171,77.5,171,77.5L171,77.5z"/>
	<path class="st9" d="M175.1,79.1c0.3-0.1,0.6-0.1,0.8-0.1l0.1,0.4c-0.2,0.1-0.3,0.2-0.3,0.4c0,0.3,0.2,0.5,0.4,0.5l0,0v0.6
		c-0.6,0.2-1.2,0.3-1.2,0.3c-0.6,0.1-0.2,0.5-0.2,0.5c0.3,0.3,0.4,0.6,0.4,0.6c0.3,0.3-0.2,0.6-0.2,0.6c-1,0.2-2.1,1.2-2.1,1.2
		c-0.8,0.1-1.9,0-1.9,0c-0.3-0.2-0.5-0.7-0.5-0.7c0.4-0.4,0.8,0.1,0.8,0.1c0.3,0.2,1,0.1,1,0.1c0.6-0.3,1.4-0.7,1.4-0.7
		c0.1-0.1,0.4-0.1,0.4-0.1c0.2-0.1,0-0.3,0-0.3c-0.6-0.4-1-0.9-1-0.9c-0.3-0.5,0-0.7,0-0.7C173.3,80.3,175.1,79.1,175.1,79.1
		L175.1,79.1z M176.1,79.1c0.4,0.2,0.6,0.5,0.6,0.5c0.2,0.5,0.1,0.6,0.1,0.6c-0.1,0.1,0,0.4,0,0.4c-0.2,0.1-0.3,0.2-0.5,0.3v-0.6
		c0.1-0.1,0.2-0.2,0.2-0.4c0-0.2-0.2-0.5-0.4-0.5L176.1,79.1L176.1,79.1z"/>
	<path class="st9" d="M184.2,77.9c0.2-0.8,0-1.6,0-1.6c-0.3-0.5-0.5-0.7-0.5-0.7c0-1.6-1-1.8-1-1.8c0,0.3,0.2,0.7,0.2,0.7
		c0.1,0.2-0.2,0-0.2,0c0-0.5-0.5-0.8-0.5-0.8c-0.4-0.2-0.6-0.5-0.6-0.5c-0.4,0.7,0.7,1.4,0.7,1.4c-1.7-0.1-4.5,0.5-4.5,0.5
		c-2,0.5-3.2-0.2-3.2-0.2c-1.2-0.6-0.7-1.6-0.7-1.6c0.6-1.1,1.8-1,1.8-1c1,0,1.8,0.3,1.8,0.3c1.8,0.5,3.7-0.1,3.7-0.1
		c0.9-0.4,1.2-1.4,1.2-1.4c-0.6,0.4-1.3,0.3-1.3,0.3c-0.5,0.4-2,0.5-2,0.5c1-0.4,1-0.8,1-0.8c0.1-0.3,0.5-0.6,0.5-0.6
		c-0.6,0.1-1.4,0.7-1.4,0.7c-0.4,0.3-1.6,0.3-1.6,0.3c-0.2,0.1-0.5,0-0.5,0c0.7-0.2,0.8-0.5,0.8-0.5c-1.7-0.5-3.2,0.6-3.2,0.6
		c-1.5,1.2-1,2.4-1,2.4c0.3,1.2,2.4,1.5,2.4,1.5c2,0.1,4.3-0.2,4.3-0.2c1.8-0.2,2.3,0,2.3,0c0.2,0.1,0,0.2,0,0.2
		c-1.1-0.1-1.4,1.1-1.4,1.1C182,75.8,183,76,183,76c0.2,0,0,0.1,0,0.1c-0.5-0.1-0.9,0.3-0.9,0.3c0.7,0.4,1.2,0.3,1.2,0.3
		c0.3-0.1,0.4-0.4,0.4-0.4c0.4,0.7,0.4,1.2,0.2,1.6c-0.3,0.4-0.7,0.6-0.7,0.6c-1.1,0.3-2.6-0.3-2.6-0.3c-0.4-0.2-1.2-0.2-1.2-0.2
		c-0.1,0-0.3-0.1-0.4-0.1c-1.1-0.3-3.2-0.6-3.2-0.6l0.2,0.3c0.3,0.1,0.4,0.2,0.5,0.4c0,0.1,0,0.3,0,0.3c-0.1,0.2-0.2,0.3-0.2,0.3
		l0.1,0.3c1.2,0.4,1,1.4,1,1.4c0.1,0.9,0.7,1.3,0.7,1.3c1.3,1.1,2.5,0.9,2.5,0.9c0.4,0,0.5,0.1,0.5,0.1c0.4,0.3,0.4,1.4,0.4,1.4
		c0,0.5-0.2,1-0.2,1c0.1,0.4,0.9,0.2,0.9,0.2c0.1,0,0.1-0.2,0.1-0.2c0.1-0.2-0.1-0.4-0.1-0.4c-0.1-0.1,0-0.1,0-0.1
		c0.5,0.2,0.4,0.8,0.4,0.8c0.7-0.9-0.3-1.6-0.3-1.6c-0.1,0-0.3-0.1-0.3-0.1c-0.1-0.5-0.1-1.4-0.1-1.4v-0.3l-0.4-0.4
		c-1,0.3-1.8-0.1-1.8-0.1c0-0.2,0-0.5,0-0.5c0.1-0.7-0.1-2.3-0.1-2.3c0.3,0.1,2,0.4,2,0.4c0.4,0.2,1.2,0.1,1.2,0.1
		c1,0.2,0.7,0.9,0.7,0.9c0.8-0.6,0.1-1.1,0.1-1.1C183.8,78.8,184.1,78.4,184.2,77.9L184.2,77.9z"/>
	<path class="st9" d="M132.6,78.3c-0.3-0.8,0.2-1.8,0.2-1.8c1-1.5,2.3-1.9,2.3-1.9c0.7-1.1,1.8-1.1,1.8-1.1
		c-0.1,0.3-0.4,0.6-0.4,0.6c0.7-0.1,1.3-0.7,1.3-0.7c0,0.9-0.8,1.2-0.8,1.2c2.8,0.4,6.7-0.1,6.7-0.1c1.6-0.3,1.5-1.7,1.5-1.7
		c-0.3-1.3-2-0.5-2-0.5c-3.5,2-5.2-0.7-5.2-0.7c0.8,0.3,2.5,0.3,2.5,0.3c-0.6-0.3-1.4-1.2-1.4-1.2c0.5,0.1,0.8,0.3,0.8,0.3
		c0.9,0.5,1.9,0.4,1.9,0.4c-0.3-0.3-0.8-0.9-0.8-0.9c0.6,0.3,1.2,0.3,1.2,0.3c0.4,0,0.7,0.1,0.7,0.1c0.6,0.1,1,0,1,0
		c1.9,0.2,2.1,1.9,2.1,1.9c0.2,2.2-2.4,2.4-2.4,2.4c-1,0.3-6.7,0.2-6.7,0.2c0.6,0.3,0.7,0.8,0.7,0.8c0.1,0.3,0.3,0.4,0.3,0.4
		c-0.6,0-1.2-0.7-1.2-0.7c0.2,0.4,0.7,0.9,0.7,0.9c-0.3,0.1-1-0.7-1-0.7c-1.1-0.9-2.1,0-2.1,0c-1,0.8-0.8,1.5-0.8,1.5
		c0,0.3,0.1,0.5,0.3,0.6c0.4,0.4,1,0.4,1,0.4c0.7,0,1.4-0.2,2-0.4c0.7-0.2,1.1-0.4,1.1-0.4c0.2,0,0.3,0,0.3,0
		c0.3-0.2,0.8-0.2,0.8-0.2c1.6-0.2,6.3-1.9,6.3-1.9c0.6-0.3,1.8-1.5,1.8-1.5c0.4,0.3,0.7,1.2,0.7,1.2c0.2-0.1,0.3-0.3,0.3-0.3
		c0.2,0.8,1.3,1.2,1.3,1.2c0.3,0,0.6,0.4,0.6,0.4l0.1-0.3c0.2,0.2,1.3,1,2.4,1.7c1.2,0.8,2.4,1.5,2.4,1.5c1-1.1,1.7-0.4,1.7-0.4
		c-0.1,0.1-0.3,0.1-0.3,0.1c-0.5,0-0.8,0.3-0.8,0.3c1.2-0.2,1.4,0.2,1.4,0.2c0.3,0.6-0.6,0.9-0.6,0.9c0-0.8-0.8-0.8-0.8-0.8
		c0.6,0.3,0.6,0.9,0.6,0.9c-0.3,0.7-0.9,0.1-0.9,0.1c-0.2-0.1-0.6-0.4-0.6-0.4c-1.8-0.1-3.5-1.4-3.5-1.4l-0.9,0.4
		c-0.6-0.4-1-1-1.2-1.4c-0.1-0.2-0.2-0.3-0.2-0.3c0,0.1,0,0.2,0,0.3c0.1,0.5,0.4,1,0.4,1c-1.6,1.8-4.4,0.2-4.4,0.2
		c-0.3-0.1-1.4-0.7-1.4-0.7c-2.9,0-4.3,2.6-4.3,2.6l-0.2,0.4c-0.2,1.7-0.7,1.7-0.7,1.7c0.3-0.6-0.4-0.9-0.4-0.9
		c-0.4,0.1-1.5,0-1.5,0c-0.7,1.2-0.1,2-0.1,2c1.3,0,0.7,1,0.7,1c-0.1,0.3-0.4,0.3-0.4,0.3c0-1.1-1-1-1-1c0.8,0.3,0.7,0.8,0.7,0.8
		c-0.2,0-0.4,0.3-0.4,0.3c-1.3-0.8-1.1-2.3-1.1-2.3c0.1-2.5,0.7-3,0.7-3c0.2-0.1,0.3,0,0.3,0c0.6,0.3,1.3,0,1.3,0
		c0.3-0.1,0.4-0.7,0.4-0.7c0.2-1,0.9-1.8,0.9-1.8c-0.5,0.2-3.2,0.9-3.2,0.9c-1.3,0.3-1.6,1.4-1.6,1.4c-0.8-1,0.5-1.6,0.5-1.6
		C133.1,78.9,132.7,78.6,132.6,78.3L132.6,78.3z M147.1,77.4c0.3,0.7,1.3,1.5,1.3,1.5c0.1,0.1,0.3,0.2,0.3,0.2
		c-0.1,0.1-0.3,0.1-0.3,0.1c-0.8-0.5-1.4-1.5-1.4-1.5C146.8,77.4,147.1,77.4,147.1,77.4L147.1,77.4z M145.8,78.2
		c0.5,0.6,0.7,0.8,0.7,0.8c0.4,0.4,0.8,0.7,0.8,0.7c-1,0-1.5-1.1-1.5-1.1c-0.1-0.3-0.1-0.4-0.1-0.4H145.8L145.8,78.2z M146.5,77.7
		c0.3,0.7,1.4,1.5,1.4,1.5c0.3,0.1,0.2,0.3,0.2,0.3c-0.2,0-0.3-0.1-0.3-0.1c-1-0.3-1.3-1.4-1.3-1.4
		C146.2,77.5,146.5,77.7,146.5,77.7L146.5,77.7z"/>
</g>
<image style="display:none;overflow:visible;enable-background:new    ;" width="2807" height="334" xlink:href="C9ABA1C5.png"  transform="matrix(9.440684e-02 0 0 9.440684e-02 18.147 60.0061)">
</image>
<image style="display:none;overflow:visible;enable-background:new    ;" width="300" height="100" xlink:href="C9ABA1C7.jpeg"  transform="matrix(0.7553 0 0 0.7553 37.3535 38.0075)">
</image>
<image style="display:none;overflow:visible;enable-background:new    ;" width="473" height="108" xlink:href="C9ABA1C5.jpeg"  transform="matrix(0.5602 0 0 0.5562 18.1476 45.7349)">
</image>
<g>
	<g>
		<g>
			<path class="st10" d="M29.7,60.6c0,10.2,0,20.3,0,30.4c1.8,0,3.6,0,5.6,0c0-8.5,0-17,0-25.5c3.1,0,6,0,9,0c0-1.7,0-3.3,0-4.9
				C39.4,60.6,34.7,60.6,29.7,60.6z"/>
			<path class="st10" d="M20.7,65.4c1.9,0,3.8,0,5.8,0c0-1.6,0-3.2,0-4.8c-2,0-3.9,0-5.8,0C20.7,62.2,20.7,63.8,20.7,65.4z"/>
		</g>
	</g>
	<path class="st10" d="M66.5,86.6c-3.2,0-6.3,0-9.5,0v0h-3.5c-0.1,0-0.3,0-0.4,0h-0.6v-4.2h0c0-1.6,0-3.2,0-4.9c4.9,0,9.7,0,14.5,0
		c0-1.4,0-2.7,0-4.2c-4.8,0-9.6,0-14.4,0c0-2.8,0-5.4,0-8.1c5.1,0,10.1,0,15.1,0c0-1.6,0-3.1,0-4.6c-6.9,0-13.8,0-20.5,0
		c0,10.2,0,20.3,0,30.4c7,0,13.9,0,20.8,0c0-1.4,0-2.8,0-4.4C67.4,86.6,67,86.6,66.5,86.6z"/>
	<path class="st10" d="M97.1,84.4v-3.9c-1.4,0-2.6,0-3.9,0c-0.3,0-0.6,0-1,0h-0.4h-0.1v3.3c-0.1,0.8-0.6,2-2.2,2.5l0,0
		c0,0-0.9,0.3-3.3,0.4c-0.5,0-1.1,0-1.6,0c-0.1,0-0.2,0-0.3,0l0,0c-1.5,0-2.9-0.2-4.4-0.5c-1.5-0.3-2.1-1.3-2.3-2.6
		c0-0.3-0.1-0.6-0.1-0.9V68.6c0-0.6,0.1-1,0.1-1.2c0.2-0.9,0.7-1.4,1.4-1.7c0.7-0.4,1.4-0.4,1.8-0.5H81h1.8h3.6v0c0.5,0,1,0,1.5,0
		l0,0c0,0,0,0,0,0c0,0,0.1,0,0.1,0c0,0,0.1,0,0.1,0h0c0.9,0,3.5,0.4,3.5,2.9l0,0v2.2h0.1h0.4c1.6,0,3.1,0,4.9,0l0-3.1
		c0-0.1,0-0.1,0-0.2l0,0c0-0.1,0-0.2,0-0.3c-0.3-5-5.7-6.2-8.6-6.4c0,0-0.1,0-0.1,0c-0.9,0-1.9-0.1-2.8-0.1l-3.9,0
		c-2.4,0.1-9.9,0.9-9.9,8.2v6.4c0,0.2,0,0.4,0,0.7v7.8c0,0-0.5,8,9.4,8l0,0c0.5,0,1.1,0.1,1.7,0.1v0c0.6,0,1.2,0,1.8,0l0,0
		c5.6,0,7.7-0.4,7.7-0.4l0,0C97.6,89.9,97.1,84.4,97.1,84.4z"/>
	<path class="st10" d="M121.6,60.6V73h-14.7V73V60.5h-5.7v30.6h5.7V77.8c0,0,0.1,0,0.1,0h14.7V91h5.6V60.6H121.6z"/>
	<g>
		<g>
			<path class="st11" d="M140.8,65.3c0.8,0,1.5-0.1,2.3-0.1c0-1.6,0-3.1,0-4.6h-8.1c0,8.6,0,17.1,0,25.6v4.4v0.6h8.1v-0.6v-4.2v-0.2
				h-2.3C140.8,79.2,140.8,72.3,140.8,65.3z"/>
			<path class="st11" d="M161.2,68.4c-0.7-4.8-3-7.1-7.8-7.7c-0.2,0-0.3,0-0.5-0.1h-7.3c0,1.7,0,3.2,0,4.9c2,0,3.9-0.1,5.7,0
				c2.3,0.2,3.4,1.2,3.8,3.5c0.7,4.3,0.7,8.7,0.1,13c-0.5,2.9-1.5,3.9-4.4,4.2c-0.1,0-0.3,0-0.4,0h-4.7v4.9h5.7v0c0.1,0,0.3,0,0.5,0
				h0v0c1.9-0.1,6.3-0.6,8-4.3c0,0,0.5-0.9,0.9-2.7c0,0,0-0.1,0-0.1l0,0c0.2-0.9,0.4-2,0.5-3.4l0,0
				C161.8,76.6,161.8,72.5,161.2,68.4z"/>
		</g>
	</g>
	<g>
		<g>
			<path class="st11" d="M165.8,91.2c1.7,0,3.4,0,5,0c0-7.2,0-14.4,0-21.5c-1.7,0-3.3,0-5,0C165.8,76.9,165.8,84,165.8,91.2z"/>
			<path class="st11" d="M165.8,60.4c0,1.5,0,2.8,0,4.2c1.7,0,3.4,0,5,0c0-1.4,0-2.8,0-4.2C169.2,60.4,167.5,60.4,165.8,60.4z"/>
		</g>
	</g>
	<path class="st11" d="M202,67.5c0-0.6-0.2-3.1-1.6-4.8c-0.1-0.1-0.2-0.2-0.3-0.3c0,0,0,0,0,0l0,0c-0.9-0.9-3.2-2.3-9-2.3l0,0
		c-0.6,0-1.2,0-1.9,0c-0.2,0-0.3,0-0.5,0c-1.1,0-3.7,0.1-5.8,0.4c0,0,0,0,0,0c-4.4,0.7-6.7,2.9-7.2,7.4c-0.1,0.5-0.1,1.1-0.1,1.6
		v12.7c0,0,0,0.3,0,0.7v0.4c0,0.1,0,0.2,0,0.2c0.1,0.7,0.2,1.6,0.5,2.6c0.3,1,0.8,1.9,1.4,2.6c0.6,0.7,1.5,1.4,2.6,1.7l0,0
		c0.4,0.2,0.8,0.3,1.3,0.4c0.5,0.1,1.1,0.2,1.6,0.3c2,0.3,4,0.4,5,0.4c0.7,0,1.4,0,2,0c1.3,0,2.4-0.1,3.3-0.2
		c0.9-0.2,1.9-0.3,2.8-0.5c2.1-0.6,4.9-2,5.6-5.6c0.3-1.4,0.4-2.9,0.4-4.3h0v-6h-0.1h-4.4c-3.1,0-6.1,0-9.1,0c0,1.4,0,2.7,0,4.3
		c2.4,0,4.9,0,7.4,0v3.9c0,0.1,0,0.2,0,0.3c-0.2,1.6-1.1,2.7-2.7,2.7c-2.8,0.1-5.6,0.2-8.4,0c-2.2-0.2-3.2-1.2-3.3-3.4
		c-0.2-4.6-0.2-9.2,0-13.7c0.1-2.3,1.1-3.3,3.4-3.5c0.4,0,0.9-0.1,1.3-0.1h7.1c0.9,0.1,2.7,0.7,2.7,4.2h0.3h3.4h2.3h0.2v-1.5
		L202,67.5C202,67.5,202,67.5,202,67.5z"/>
	<path class="st11" d="M211.5,86.3c0-3,0-5.8,0-8.8c4.8,0,9.6,0,14.3,0c0-1.5,0-2.8,0-4.3c-4.8,0-9.6,0-14.3,0c0-2.7,0-5.3,0-8
		c5.1,0,10.1,0,15,0c0-1.7,0-3.3,0-4.8c-7,0-13.9,0-20.9,0c0,10.3,0,20.5,0,30.8c7.1,0,14.1,0,21.1,0c0-1.6,0-3.2,0-4.9
		C221.6,86.3,216.6,86.3,211.5,86.3z"/>
	<path class="st11" d="M254.7,80.1c-0.2-4.2-1.5-5.6-5.6-6.2c-3.3-0.5-6.6-0.7-9.9-1c-2.7-0.3-3.2-0.9-3.3-3.6c0-0.5,0-1.1,0.1-1.6
		c0.2-1.4,0.9-2.4,2.4-2.4c2.5-0.1,5-0.2,7.5-0.1c1.3,0,2,0.9,2.2,2.1c0,0.3,0.1,0.5,0.1,0.8v1.4h1.8v0c1.3,0,2.6,0,3.9,0v-1.7
		c0-2.9-0.8-4.3-1-4.6c-0.8-1.1-1.9-1.8-3.5-2.3c0,0,0,0-0.1,0c0,0,0,0,0,0c-0.6-0.2-3-0.8-7.2-0.8c-3,0-5.1,0.3-6.3,0.5
		c-0.3,0.1-0.6,0.1-0.9,0.2c-2.7,0.6-4.4,2.3-4.7,5c-0.2,2-0.3,4.1-0.1,6.1c0.4,3.5,1.5,4.7,5.1,5.3c3,0.5,6.1,0.8,9.2,1
		c4.1,0.3,5,1.4,4.5,5.4c0,0.2-0.1,0.3-0.1,0.5c-0.2,1.4-1,2.4-2.4,2.4c-2.9,0.1-5.8,0-8.7-0.1c-1.1,0-1.8-0.8-1.9-1.9c0,0,0,0,0,0
		v-2.9h-0.4c-1.8,0-3.5,0-5.4,0v2.8c0,0,0,0.2,0,0.5V85h0c0.1,1.4,0.6,4.6,3.6,5.5v0c0.5,0.2,1,0.3,1.5,0.4c0.4,0.1,0.8,0.1,1.3,0.2
		c2.5,0.4,5.3,0.4,5.8,0.4c0,0,0,0,0.1,0c0.3,0,0.5,0,0.8,0l0,0c4.1,0,7.2-0.8,7.2-0.8l0,0c2.3-0.6,3.7-2.1,4.1-4.5
		C254.7,84.2,254.8,82.1,254.7,80.1z"/>
	<path class="st11" d="M256.5,60.3L256.5,60.3c0,1.8,0,3.5,0,5.3c0,0,0,0,0,0c3,0,5.9,0,8.9,0c0,8.6,0,17,0,25.5c2,0,3.8,0,5.9,0
		c0-8.5,0-17,0-25.6c1.7,0,3.2,0,4.7,0c0,0,0,0,0,0h4.6v-0.2c0-1.6,0-3.3,0-4.9v-0.2H256.5z"/>
</g>
</svg>
